<svg xmlns="http://www.w3.org/2000/svg" xmlns:xlink="http://www.w3.org/1999/xlink" width="500" zoomAndPan="magnify" viewBox="0 0 375 374.999991" height="500" preserveAspectRatio="xMidYMid meet" version="1.0"><defs><clipPath id="a45d5c30fe"><path d="M 225 232 L 285 232 L 285 364.402344 L 225 364.402344 Z M 225 232 " clip-rule="nonzero"/></clipPath><clipPath id="efcd15f031"><path d="M 203.53125 244 L 266 244 L 266 363 L 203.53125 363 Z M 203.53125 244 " clip-rule="nonzero"/></clipPath><clipPath id="a7ce951a59"><path d="M 261.65625 214.402344 L 353.355469 214.402344 L 353.355469 353 L 261.65625 353 Z M 261.65625 214.402344 " clip-rule="nonzero"/></clipPath></defs><path fill="#100f0d" d="M 41.589844 373.632812 C 26.007812 365 10.742188 349.609375 1.480469 333.425781 C 0.0390625 330.914062 0.460938 327.746094 2.507812 325.699219 L 217.464844 110.742188 C 218.976562 109.226562 221.433594 109.226562 222.945312 110.742188 L 264.25 152.046875 C 265.765625 153.5625 265.765625 156.015625 264.25 157.53125 L 49.230469 372.550781 C 47.207031 374.574219 44.089844 375.019531 41.589844 373.632812 " fill-opacity="1" fill-rule="nonzero"/><path fill="#100f0d" d="M 261.835938 129.09375 L 355.355469 35.578125 L 355.667969 35.890625 C 356.1875 36.414062 357.027344 36.441406 357.578125 35.949219 L 374.363281 21.109375 C 374.953125 20.585938 374.980469 19.675781 374.425781 19.117188 L 355.875 0.570312 C 355.316406 0.0117188 354.40625 0.0429688 353.882812 0.628906 L 339.042969 17.414062 C 338.554688 17.964844 338.578125 18.804688 339.101562 19.328125 L 339.417969 19.640625 L 245.902344 113.15625 L 230.488281 109.566406 L 265.425781 144.503906 L 261.835938 129.09375 " fill-opacity="1" fill-rule="nonzero"/><path fill="#040606" d="M 297.414062 357.332031 C 297.082031 357.664062 296.734375 357.664062 296.402344 357.664062 C 296.066406 357.664062 295.390625 357.332031 295.390625 356.984375 L 293.699219 353.960938 L 293.363281 353.960938 C 292.6875 353.960938 292.019531 353.617188 291.671875 353.28125 L 288.304688 346.542969 C 287.636719 346.542969 287.304688 346.542969 286.625 346.542969 C 286.292969 346.542969 285.613281 346.210938 285.613281 345.53125 L 282.578125 338.792969 C 282.246094 339.125 281.914062 339.125 281.566406 339.125 C 280.898438 339.125 280.554688 338.792969 280.554688 338.113281 L 277.863281 331.375 C 277.53125 331.710938 277.183594 331.710938 276.519531 331.710938 C 275.839844 331.710938 275.507812 331.03125 275.507812 330.699219 L 273.136719 322.945312 C 272.804688 322.945312 272.472656 323.28125 272.136719 322.945312 C 271.792969 322.945312 271.125 322.269531 271.125 321.933594 L 268.421875 313.839844 C 268.089844 314.183594 267.742188 314.183594 267.078125 314.183594 C 266.398438 314.183594 266.066406 313.503906 266.066406 313.171875 L 263.363281 304.0625 C 263.027344 304.410156 262.351562 304.410156 261.683594 304.410156 C 261.339844 304.0625 261.003906 303.730469 260.671875 303.066406 L 259.660156 294.96875 L 258.316406 294.96875 C 257.96875 294.636719 257.636719 294.289062 257.636719 293.957031 L 256.289062 285.875 L 255.945312 285.875 C 255.613281 286.207031 254.945312 286.207031 254.265625 285.875 C 253.921875 285.527344 253.585938 285.195312 253.253906 284.515625 L 252.574219 276.765625 C 252.242188 277.097656 251.910156 277.097656 251.910156 277.097656 C 251.5625 277.097656 251.230469 277.097656 251.230469 276.765625 C 250.898438 276.429688 250.550781 276.085938 250.550781 275.417969 L 250.898438 267.324219 L 250.550781 267.324219 C 250.21875 267.65625 249.550781 267.324219 249.207031 267.324219 C 248.875 266.988281 248.539062 266.65625 248.539062 265.976562 L 248.875 257.546875 L 248.539062 257.894531 C 248.195312 258.226562 247.527344 257.894531 247.183594 257.894531 C 246.847656 257.546875 246.515625 257.214844 246.515625 256.535156 L 246.515625 247.109375 L 246.183594 247.109375 C 245.835938 247.441406 245.171875 247.109375 244.824219 246.761719 C 244.492188 246.429688 244.160156 246.082031 244.160156 245.417969 L 244.824219 239.675781 C 244.492188 239.675781 243.8125 239.675781 243.480469 239.34375 C 243.148438 239.011719 243.148438 238.332031 243.148438 238 L 244.492188 232.605469 L 243.8125 232.605469 C 243.480469 232.605469 243.148438 232.273438 242.800781 231.925781 C 242.46875 231.59375 242.46875 230.914062 242.800781 230.582031 L 244.492188 226.199219 L 243.8125 225.867188 C 243.480469 225.867188 242.800781 225.1875 242.800781 224.855469 C 242.800781 224.507812 242.800781 223.84375 243.148438 223.496094 C 242.800781 223.84375 242.46875 223.84375 242.136719 224.175781 C 241.457031 228.558594 241.125 233.949219 241.789062 240.355469 C 243.480469 254.179688 248.539062 274.742188 251.578125 283.167969 C 253.253906 287.882812 255.957031 294.621094 258.316406 300.695312 C 260.671875 306.421875 262.695312 311.148438 263.027344 312.828125 C 263.707031 315.863281 267.410156 322.601562 273.148438 331.375 C 278.875 340.472656 288.984375 353.960938 291.007812 355.984375 C 291.339844 356.320312 291.6875 356.652344 292.019531 356.984375 C 293.03125 357.996094 294.722656 359.6875 296.734375 361.367188 C 298.09375 361.03125 299.105469 360.699219 300.449219 360.355469 C 300.117188 360.355469 300.117188 360.019531 300.117188 360.019531 L 297.414062 357.332031 " fill-opacity="1" fill-rule="nonzero"/><path fill="#040606" d="M 287.972656 359.007812 C 285.28125 356.652344 275.160156 342.496094 269.433594 333.734375 C 265.386719 327.328125 259.992188 318.898438 258.980469 314.515625 C 258.648438 312.828125 256.625 308.113281 254.265625 302.71875 C 251.910156 296.660156 248.875 289.574219 247.527344 284.847656 C 244.492188 276.085938 239.433594 255.523438 237.753906 241.367188 C 237.074219 235.976562 237.40625 230.914062 237.753906 226.878906 C 236.394531 227.546875 235.382812 228.558594 234.039062 229.570312 C 234.386719 229.902344 234.386719 230.25 234.039062 230.914062 L 232.359375 234.964844 L 232.695312 234.964844 C 233.027344 234.964844 233.359375 235.308594 233.707031 235.640625 C 234.039062 235.976562 234.039062 236.308594 234.039062 236.988281 L 232.695312 241.714844 C 233.027344 241.714844 233.359375 241.714844 233.707031 242.046875 C 234.039062 242.378906 234.371094 242.714844 234.039062 243.394531 L 233.359375 248.785156 C 233.707031 248.453125 234.386719 248.785156 234.71875 249.117188 C 235.050781 249.464844 235.382812 249.796875 235.382812 250.476562 L 235.382812 258.894531 L 236.0625 258.558594 C 236.394531 258.226562 237.074219 258.558594 237.40625 258.558594 C 237.753906 258.894531 238.085938 259.238281 238.085938 259.90625 L 238.085938 268.667969 L 238.417969 268.667969 C 238.765625 268.335938 239.433594 268.667969 239.777344 268.667969 C 240.109375 269.015625 240.445312 269.347656 240.445312 270.027344 L 240.109375 277.777344 L 241.125 277.777344 C 241.457031 278.109375 241.789062 278.441406 242.136719 279.121094 L 242.800781 286.886719 C 243.148438 286.539062 243.8125 286.539062 244.144531 286.886719 L 245.15625 287.882812 L 246.515625 296.3125 L 247.863281 296.3125 C 248.195312 296.660156 248.539062 296.992188 248.539062 297.324219 L 249.550781 305.074219 C 249.886719 304.742188 250.21875 304.742188 250.898438 305.074219 C 251.230469 305.074219 251.5625 305.753906 251.910156 306.089844 L 254.601562 314.863281 C 254.945312 314.515625 255.277344 314.515625 255.945312 314.515625 C 256.625 314.515625 256.957031 315.195312 256.957031 315.53125 L 259.660156 324.292969 C 259.992188 324.292969 260.324219 323.960938 260.671875 324.292969 C 261.003906 324.292969 261.683594 324.972656 261.683594 325.304688 L 264.042969 332.722656 C 264.375 332.722656 264.71875 332.375 265.054688 332.722656 C 265.71875 332.722656 266.066406 333.054688 266.066406 333.734375 L 268.753906 340.472656 L 269.765625 340.472656 C 270.445312 340.472656 270.78125 340.816406 271.125 341.484375 L 274.148438 348.570312 C 274.496094 348.222656 274.828125 348.222656 275.492188 348.222656 C 275.839844 348.222656 276.503906 348.570312 276.503906 348.902344 L 279.210938 354.292969 L 279.875 354.292969 C 280.554688 354.292969 281.234375 354.628906 281.566406 354.960938 L 283.921875 359.355469 C 284.269531 359.007812 284.601562 359.007812 284.933594 359.007812 C 285.269531 359.007812 285.613281 359.355469 285.949219 359.6875 L 287.292969 362.378906 L 287.636719 362.378906 C 288.304688 362.378906 288.652344 362.710938 288.984375 363.058594 L 289.316406 363.390625 C 289.996094 363.390625 291.007812 363.058594 291.671875 363.058594 C 290.328125 362.046875 289.316406 361.03125 288.652344 360.019531 C 288.652344 359.355469 288.304688 359.007812 287.972656 359.007812 " fill-opacity="1" fill-rule="nonzero"/><path fill="#040606" d="M 308.867188 357.332031 C 308.199219 357.664062 307.519531 357.332031 307.1875 356.652344 L 305.496094 353.960938 C 305.164062 353.960938 304.832031 354.292969 304.832031 354.292969 C 304.152344 354.292969 303.820312 353.960938 303.484375 353.28125 L 302.128906 350.246094 C 301.792969 350.246094 301.460938 350.59375 301.113281 350.246094 C 300.78125 350.246094 300.101562 349.914062 300.101562 349.566406 L 298.757812 346.542969 L 298.425781 346.542969 C 297.746094 346.542969 297.066406 346.210938 296.734375 345.53125 L 293.363281 339.792969 C 293.03125 339.792969 292.6875 340.140625 292.019531 339.792969 C 291.6875 339.792969 291.007812 339.460938 291.007812 338.792969 L 288.304688 332.375 L 287.636719 332.375 C 286.960938 332.375 286.625 332.042969 286.292969 331.375 L 283.921875 324.957031 C 283.589844 324.957031 283.257812 325.304688 282.910156 324.957031 C 282.246094 324.957031 281.914062 324.292969 281.914062 323.960938 L 279.886719 316.875 L 278.875 316.875 C 278.195312 316.875 277.863281 316.195312 277.863281 315.863281 L 275.507812 308.113281 C 275.160156 308.457031 274.828125 308.457031 274.496094 308.457031 C 273.816406 308.457031 273.484375 307.777344 273.484375 307.433594 L 271.125 298.671875 C 270.78125 299.015625 270.113281 299.015625 269.765625 298.671875 C 269.101562 298.335938 268.769531 298.003906 268.769531 297.324219 L 267.742188 289.574219 L 266.746094 289.574219 C 266.398438 289.242188 266.066406 288.894531 266.066406 288.5625 L 264.71875 281.144531 C 264.375 281.480469 263.707031 281.480469 263.027344 281.144531 C 262.363281 280.8125 262.015625 280.464844 262.015625 279.800781 L 261.351562 272.714844 C 261.003906 273.0625 260.339844 273.0625 259.992188 272.714844 C 259.328125 272.382812 259.328125 272.035156 259.328125 271.371094 L 259.660156 263.621094 C 259.328125 263.953125 258.648438 263.621094 257.96875 263.621094 C 257.636719 263.273438 257.304688 262.941406 257.304688 262.261719 L 257.636719 254.179688 L 257.304688 254.179688 C 256.96875 254.511719 256.289062 254.511719 255.957031 254.179688 C 255.613281 253.847656 255.277344 253.5 255.277344 252.835938 L 255.277344 244.070312 C 254.945312 244.40625 254.265625 244.070312 253.933594 243.726562 C 253.601562 243.394531 253.253906 243.058594 253.253906 242.378906 L 253.933594 236.988281 C 253.601562 236.988281 252.921875 236.988281 252.921875 236.65625 C 252.589844 236.308594 252.242188 235.628906 252.589844 235.296875 L 253.933594 230.25 L 253.601562 230.25 C 253.253906 230.25 252.921875 229.902344 252.589844 229.570312 C 252.242188 229.238281 252.242188 228.558594 252.589844 228.226562 L 254.265625 224.175781 L 253.601562 223.84375 C 253.253906 223.84375 252.921875 223.496094 252.589844 222.832031 C 252.589844 222.484375 252.589844 221.820312 252.921875 221.472656 L 254.613281 219.117188 C 254.613281 219.117188 254.265625 219.117188 254.265625 218.785156 C 252.589844 219.449219 251.242188 220.128906 249.886719 220.472656 C 249.886719 220.472656 249.886719 220.808594 249.550781 220.808594 L 247.527344 223.496094 C 247.863281 223.496094 248.207031 223.84375 248.539062 224.175781 C 248.875 224.507812 248.875 224.855469 248.539062 225.523438 L 246.847656 229.570312 L 247.195312 229.570312 C 247.527344 229.570312 247.863281 229.902344 248.207031 230.25 C 248.539062 230.582031 248.539062 230.914062 248.539062 231.59375 L 247.195312 236.308594 C 247.527344 236.308594 247.863281 236.65625 248.207031 236.65625 C 248.539062 236.988281 248.875 237.320312 248.539062 238 L 247.863281 243.394531 C 248.207031 243.058594 248.875 243.394531 249.21875 243.726562 C 249.550781 244.070312 249.886719 244.40625 249.886719 245.070312 L 249.886719 254.179688 L 250.566406 253.847656 C 250.898438 253.5 251.578125 253.847656 251.910156 253.847656 C 251.5625 254.511719 251.5625 254.859375 251.5625 255.523438 L 251.230469 263.953125 L 251.5625 263.953125 C 251.910156 263.621094 252.574219 263.953125 252.921875 263.953125 C 253.253906 264.285156 253.585938 264.632812 253.585938 265.296875 L 253.585938 273.0625 L 254.601562 273.0625 C 254.933594 273.394531 255.277344 273.726562 255.613281 274.40625 L 256.289062 282.15625 C 256.625 281.824219 257.289062 281.824219 257.636719 282.15625 C 257.96875 282.492188 258.316406 282.835938 258.648438 283.167969 L 259.992188 291.253906 C 260.324219 290.921875 261.003906 291.253906 261.339844 291.253906 C 261.683594 291.597656 262.015625 291.933594 262.015625 292.277344 L 263.027344 300.015625 C 263.363281 299.683594 263.695312 299.683594 264.375 300.015625 L 265.386719 301.027344 L 268.421875 309.457031 C 268.753906 309.125 269.089844 309.125 269.765625 309.125 C 270.445312 309.125 270.78125 309.457031 270.78125 310.136719 L 273.484375 318.898438 L 274.496094 318.898438 C 275.160156 318.898438 275.492188 319.566406 275.492188 319.910156 L 277.863281 326.996094 C 278.195312 326.996094 278.53125 326.648438 278.875 326.996094 C 279.210938 326.996094 279.875 327.328125 279.875 328.007812 L 282.578125 334.746094 L 283.589844 334.746094 C 284.269531 334.746094 284.601562 335.078125 284.933594 335.746094 L 287.972656 342.828125 C 288.304688 342.496094 288.652344 342.496094 289.316406 342.496094 C 289.664062 342.496094 289.996094 342.828125 290.328125 343.160156 L 293.03125 348.570312 L 293.699219 348.570312 C 294.375 348.570312 295.054688 348.902344 295.390625 349.234375 L 297.746094 353.617188 C 298.078125 353.28125 298.425781 353.28125 298.757812 353.28125 C 299.089844 353.28125 299.769531 353.617188 299.769531 353.949219 L 301.113281 356.652344 L 301.449219 356.652344 C 302.128906 356.652344 302.460938 356.984375 302.804688 357.332031 L 304.152344 359.339844 C 305.84375 358.675781 307.851562 357.996094 309.542969 356.984375 L 309.210938 356.984375 C 309.210938 357.332031 309.210938 357.332031 308.867188 357.332031 " fill-opacity="1" fill-rule="nonzero"/><g clip-path="url(#a45d5c30fe)"><path fill="#040606" d="M 283.257812 363.058594 C 282.910156 363.058594 282.578125 362.710938 282.246094 362.378906 L 280.554688 359.355469 L 280.222656 359.355469 C 279.542969 359.355469 278.875 359.007812 278.53125 358.675781 L 275.160156 351.9375 C 274.828125 352.269531 274.148438 352.269531 273.816406 352.269531 C 273.484375 352.269531 272.804688 351.9375 272.804688 351.257812 L 269.765625 344.519531 C 269.433594 344.519531 269.101562 344.867188 268.753906 344.867188 C 268.089844 344.867188 267.742188 344.519531 267.410156 343.839844 L 264.71875 337.101562 C 264.375 337.449219 264.042969 337.449219 263.363281 337.449219 C 262.695312 337.449219 262.351562 336.769531 262.351562 336.421875 L 259.992188 329.019531 C 259.660156 329.019531 259.328125 329.351562 258.980469 329.019531 C 258.316406 329.019531 257.96875 328.339844 257.96875 328.007812 L 255.277344 319.578125 C 254.945312 319.925781 254.601562 319.925781 253.921875 319.925781 C 253.253906 319.925781 252.921875 319.246094 252.921875 318.910156 L 250.21875 309.804688 C 249.886719 310.148438 249.207031 310.148438 248.539062 310.148438 C 248.195312 309.804688 247.527344 309.46875 247.527344 308.792969 L 246.515625 300.707031 L 245.15625 300.707031 C 244.824219 300.363281 244.492188 300.027344 244.492188 299.695312 L 243.148438 291.597656 L 242.800781 291.597656 C 242.46875 291.933594 241.789062 291.933594 241.125 291.597656 C 240.777344 291.265625 240.445312 290.933594 240.109375 290.253906 L 239.433594 282.503906 C 239.097656 282.835938 238.417969 282.835938 237.753906 282.503906 C 237.40625 282.15625 237.074219 281.824219 237.074219 281.160156 L 237.40625 272.730469 L 237.074219 273.0625 C 236.730469 273.394531 236.0625 273.0625 235.730469 273.0625 C 235.382812 272.730469 235.050781 272.382812 235.050781 271.71875 L 235.382812 262.941406 L 234.71875 262.609375 C 234.371094 262.941406 233.707031 262.609375 233.359375 262.609375 C 233.027344 262.261719 232.695312 261.929688 232.695312 261.25 L 232.695312 251.820312 L 232.359375 251.820312 C 232.015625 252.15625 231.347656 251.820312 231.003906 251.488281 C 230.667969 251.144531 230.335938 250.808594 230.335938 250.132812 L 231.003906 244.40625 C 230.667969 244.40625 229.992188 244.40625 229.65625 244.070312 C 229.324219 243.726562 228.976562 243.058594 229.324219 242.714844 L 230.667969 237.320312 L 229.992188 237.320312 C 229.65625 237.320312 228.976562 236.988281 228.976562 236.65625 C 228.644531 236.308594 228.644531 235.640625 228.976562 235.296875 L 229.992188 232.605469 C 229.324219 233.273438 228.3125 233.949219 227.632812 234.628906 C 227.964844 234.964844 227.964844 235.296875 227.632812 235.976562 L 225.941406 240.355469 L 226.289062 240.355469 C 226.621094 240.355469 226.96875 240.6875 227.300781 241.035156 C 227.632812 241.367188 227.632812 241.703125 227.632812 242.378906 L 226.289062 247.09375 C 226.621094 247.09375 226.96875 247.09375 227.300781 247.441406 C 227.632812 247.773438 227.964844 248.453125 227.964844 248.785156 L 227.300781 254.179688 L 227.632812 254.179688 C 227.980469 253.847656 228.644531 254.179688 228.992188 254.179688 C 229.324219 254.511719 229.65625 254.859375 229.65625 255.523438 L 229.65625 264.964844 L 230.335938 264.632812 C 230.667969 264.285156 231.347656 264.285156 232.015625 264.632812 C 232.359375 264.964844 232.695312 265.296875 232.695312 265.976562 L 232.359375 274.742188 L 232.695312 274.40625 C 233.027344 274.074219 233.707031 274.40625 234.039062 274.40625 C 234.386719 274.742188 234.71875 275.074219 234.71875 275.753906 L 234.71875 283.503906 C 235.050781 283.167969 235.382812 283.503906 236.0625 283.503906 C 236.394531 283.847656 236.730469 284.183594 237.074219 284.847656 L 237.753906 292.613281 C 238.085938 292.277344 238.753906 292.277344 239.097656 292.613281 L 240.109375 293.625 L 241.457031 302.71875 C 241.789062 302.386719 242.46875 302.71875 242.800781 302.71875 C 243.148438 303.066406 243.480469 303.382812 243.480469 303.730469 L 244.492188 311.148438 C 244.824219 310.816406 245.15625 310.816406 245.835938 311.148438 C 246.171875 311.148438 246.515625 311.828125 246.847656 312.160156 L 249.550781 320.589844 C 249.886719 320.242188 250.21875 320.242188 250.898438 320.242188 C 251.5625 320.242188 251.910156 320.589844 251.910156 321.253906 L 254.601562 329.683594 C 254.945312 329.683594 255.277344 329.351562 255.613281 329.683594 C 256.289062 329.683594 256.625 330.351562 256.625 330.699219 L 258.980469 337.4375 C 259.328125 337.4375 259.660156 337.101562 259.992188 337.4375 C 260.324219 337.4375 261.003906 337.769531 261.003906 338.449219 L 263.707031 344.851562 L 264.71875 344.851562 C 265.386719 344.851562 265.734375 345.1875 266.066406 345.863281 L 269.101562 352.601562 C 269.433594 352.269531 269.765625 352.269531 270.101562 352.269531 C 270.445312 352.269531 271.113281 352.601562 271.113281 352.9375 L 273.816406 357.996094 L 274.148438 357.996094 C 274.828125 357.996094 275.492188 358.328125 275.839844 358.675781 L 277.863281 362.710938 C 278.195312 362.378906 278.53125 362.378906 278.875 362.378906 C 279.210938 362.378906 279.886719 362.710938 279.886719 363.058594 L 280.554688 364.402344 C 281.898438 364.402344 283.589844 364.402344 284.933594 364.054688 L 284.601562 363.058594 C 283.921875 363.058594 283.589844 363.058594 283.257812 363.058594 " fill-opacity="1" fill-rule="nonzero"/></g><path fill="#040606" d="M 312.914062 353.28125 C 312.246094 353.28125 311.902344 352.9375 311.570312 352.617188 L 309.210938 349.566406 C 309.210938 349.914062 308.53125 349.914062 308.199219 349.914062 C 307.867188 349.914062 307.1875 349.566406 307.1875 348.902344 L 305.496094 346.210938 L 305.164062 346.210938 C 304.484375 346.210938 303.820312 345.863281 303.472656 345.53125 L 300.449219 339.125 C 300.101562 339.460938 299.769531 339.460938 299.089844 339.460938 C 298.757812 339.460938 298.09375 339.125 298.09375 338.449219 L 295.390625 332.042969 L 294.710938 332.042969 C 294.042969 332.042969 293.699219 331.710938 293.363281 331.03125 L 291.007812 324.625 C 290.675781 324.957031 290.328125 324.957031 289.996094 324.625 C 289.316406 324.625 288.984375 323.960938 288.984375 323.613281 L 286.960938 316.542969 L 285.949219 316.542969 C 285.28125 316.542969 284.933594 315.863281 284.933594 315.53125 L 282.578125 307.777344 C 282.246094 308.113281 281.914062 308.113281 281.566406 307.777344 C 280.898438 307.777344 280.554688 307.101562 280.554688 306.765625 L 278.195312 298.003906 C 277.863281 298.335938 277.183594 298.335938 276.851562 298.003906 C 276.519531 297.660156 276.171875 297.324219 275.839844 296.644531 L 274.828125 288.894531 L 273.816406 288.894531 L 272.804688 287.882812 L 271.457031 280.464844 C 271.125 280.800781 270.445312 280.800781 269.78125 280.464844 C 269.433594 280.132812 269.101562 279.800781 268.769531 279.121094 L 268.089844 272.035156 C 267.757812 272.382812 267.078125 272.382812 266.746094 272.035156 C 266.066406 271.703125 266.066406 271.371094 266.066406 270.691406 L 266.066406 262.941406 C 265.734375 263.273438 265.054688 262.941406 264.71875 262.941406 C 264.375 262.609375 264.042969 262.261719 264.042969 261.597656 L 264.386719 253.5 L 264.042969 253.5 C 263.707031 253.847656 263.027344 253.847656 262.695312 253.5 C 262.363281 253.167969 262.015625 252.835938 262.015625 252.15625 L 262.015625 243.394531 C 261.683594 243.726562 261.003906 243.394531 260.671875 243.046875 C 260.339844 242.714844 260.007812 242.035156 260.007812 241.703125 L 260.671875 236.308594 C 260.339844 236.308594 259.660156 236.308594 259.328125 235.976562 C 258.316406 235.976562 258.316406 235.640625 258.316406 234.964844 L 259.660156 229.902344 L 259.328125 229.902344 C 258.980469 229.902344 258.648438 229.570312 258.316406 229.238281 C 257.96875 228.902344 257.96875 228.226562 258.316406 227.890625 L 259.992188 223.84375 L 259.328125 223.84375 C 258.980469 223.84375 258.648438 223.164062 258.316406 222.832031 C 258.316406 222.484375 258.316406 221.820312 258.648438 221.488281 L 260.339844 219.117188 C 259.992188 219.117188 259.660156 218.449219 259.328125 218.117188 L 259.328125 217.4375 C 258.648438 217.769531 257.636719 217.769531 256.96875 218.117188 L 256.96875 218.449219 C 257.304688 218.785156 256.96875 219.460938 256.625 219.796875 L 254.945312 221.820312 C 255.277344 221.820312 255.613281 222.152344 255.957031 222.484375 C 256.289062 222.832031 256.289062 223.164062 255.957031 223.84375 L 254.601562 227.546875 L 254.945312 227.546875 C 255.277344 227.546875 255.613281 227.890625 255.957031 228.226562 C 256.289062 228.558594 256.289062 228.890625 256.289062 229.570312 L 254.945312 233.949219 C 255.277344 233.949219 255.613281 234.296875 255.613281 234.296875 C 255.957031 234.628906 256.289062 234.964844 256.289062 235.640625 L 255.945312 240.703125 C 256.289062 240.703125 256.957031 240.703125 257.304688 241.035156 C 257.636719 241.367188 257.96875 241.703125 257.96875 242.378906 L 257.96875 251.144531 L 258.316406 251.144531 C 258.648438 250.808594 259.328125 250.808594 259.660156 251.144531 C 259.992188 251.488281 260.324219 251.820312 260.324219 252.488281 L 259.992188 260.585938 C 260.324219 260.25 261.003906 260.25 261.339844 260.585938 C 261.683594 260.917969 262.015625 261.25 262.015625 261.929688 L 262.015625 269.347656 L 263.027344 269.347656 C 263.363281 269.691406 263.695312 270.027344 264.042969 270.691406 L 264.707031 277.777344 C 265.054688 277.445312 265.71875 277.445312 266.066406 277.777344 C 266.398438 278.109375 267.078125 278.441406 267.078125 278.789062 L 268.421875 286.539062 L 269.433594 286.539062 C 269.765625 286.886719 270.101562 287.21875 270.101562 287.550781 L 271.113281 294.621094 L 272.125 294.621094 C 272.457031 294.621094 273.136719 295.300781 273.136719 295.648438 L 275.492188 303.730469 C 275.839844 303.730469 276.171875 303.382812 276.503906 303.730469 C 277.183594 303.730469 277.519531 304.410156 277.519531 304.742188 L 279.875 312.828125 L 280.886719 312.828125 C 281.566406 312.828125 281.898438 313.503906 281.898438 313.839844 L 283.921875 320.589844 L 284.601562 320.589844 C 285.269531 320.589844 285.601562 320.921875 285.601562 321.601562 L 287.972656 328.007812 L 288.636719 328.007812 C 289.316406 328.007812 289.648438 328.339844 289.996094 329.007812 L 292.6875 335.746094 C 293.019531 335.410156 293.363281 335.410156 293.699219 335.746094 C 294.03125 335.746094 294.710938 336.089844 294.710938 336.421875 L 297.398438 341.484375 L 297.746094 341.484375 C 298.410156 341.484375 299.089844 341.816406 299.425781 342.496094 L 301.449219 346.542969 C 301.792969 346.542969 302.128906 346.199219 302.460938 346.542969 C 302.792969 346.542969 303.472656 346.878906 303.472656 347.210938 L 304.816406 349.914062 L 305.164062 349.914062 C 305.828125 349.914062 306.175781 350.246094 306.507812 350.578125 L 308.199219 352.9375 C 308.53125 352.9375 308.867188 352.9375 309.199219 353.28125 L 311.570312 355.308594 C 312.234375 354.960938 312.582031 355.308594 312.914062 355.640625 C 313.246094 355.308594 313.925781 354.960938 314.257812 354.960938 L 313.246094 353.28125 C 313.59375 352.9375 313.261719 353.28125 312.914062 353.28125 " fill-opacity="1" fill-rule="nonzero"/><path fill="#040606" d="M 273.816406 362.710938 C 273.136719 362.710938 272.472656 362.378906 272.125 362.046875 L 268.753906 355.984375 C 268.421875 356.320312 268.089844 356.320312 267.410156 356.320312 C 267.078125 356.320312 266.398438 355.984375 266.398438 355.308594 L 263.707031 348.902344 C 263.363281 348.902344 263.027344 349.234375 262.695312 349.234375 C 262.015625 349.234375 261.683594 348.902344 261.339844 348.222656 L 258.648438 341.816406 C 258.316406 342.164062 257.96875 342.164062 257.304688 342.164062 C 256.625 342.164062 256.289062 341.484375 256.289062 341.152344 L 253.921875 334.066406 C 253.585938 334.066406 253.253906 334.398438 252.921875 334.066406 C 252.242188 334.066406 251.910156 333.402344 251.910156 333.054688 L 249.550781 324.972656 C 249.207031 325.304688 248.875 325.304688 248.195312 325.304688 C 247.527344 325.304688 247.183594 324.636719 247.183594 324.292969 L 244.492188 315.195312 C 244.144531 315.53125 243.480469 315.53125 242.800781 315.53125 C 242.46875 315.195312 241.789062 314.863281 241.789062 314.183594 L 240.777344 306.101562 L 239.433594 306.101562 C 239.097656 305.753906 238.753906 305.421875 238.753906 305.074219 L 237.40625 297.324219 L 237.074219 297.660156 C 236.730469 298.003906 236.0625 298.003906 235.382812 297.660156 C 235.050781 297.324219 234.71875 296.992188 234.371094 296.3125 L 233.707031 288.5625 C 233.359375 288.894531 232.695312 288.894531 232.015625 288.5625 C 231.347656 288.230469 231.347656 287.882812 231.347656 287.21875 L 231.347656 278.789062 L 231.003906 279.121094 C 230.667969 279.453125 229.992188 279.453125 229.65625 279.121094 C 229.324219 278.789062 228.976562 278.441406 228.976562 277.777344 L 229.324219 269.015625 L 228.644531 269.015625 C 228.3125 269.347656 227.632812 269.015625 227.300781 269.015625 C 226.96875 268.667969 226.621094 268.335938 226.621094 267.65625 L 226.621094 257.882812 L 226.289062 258.226562 C 225.941406 258.558594 225.277344 258.226562 224.941406 257.882812 C 224.597656 257.546875 224.597656 257.546875 224.265625 257.214844 L 224.265625 257.882812 L 222.917969 261.25 L 224.941406 264.632812 C 225.277344 264.964844 225.277344 265.296875 225.277344 265.976562 L 224.597656 268.003906 L 227.300781 273.394531 C 227.632812 274.0625 227.632812 274.40625 226.96875 275.074219 L 225.609375 276.765625 L 229.324219 282.835938 C 229.65625 283.503906 229.65625 284.183594 229.324219 284.515625 L 228.644531 285.527344 L 232.359375 292.277344 C 232.695312 292.613281 232.695312 293.277344 232.359375 293.957031 L 231.679688 294.96875 L 236.742188 301.027344 C 237.074219 301.707031 237.074219 302.386719 236.742188 303.066406 L 234.71875 304.742188 L 239.097656 310.136719 C 239.433594 310.816406 239.433594 311.480469 239.097656 312.160156 L 238.417969 312.828125 L 243.148438 318.234375 C 243.8125 318.898438 243.8125 319.566406 243.148438 320.242188 L 242.136719 321.601562 L 247.183594 326.648438 C 247.527344 326.996094 247.863281 327.660156 247.527344 328.007812 L 247.183594 330.699219 L 251.5625 334.746094 C 251.910156 335.078125 252.242188 335.425781 251.910156 336.089844 L 251.5625 339.460938 L 255.277344 342.828125 C 255.613281 343.160156 255.945312 343.507812 255.945312 344.1875 C 255.945312 344.519531 255.613281 344.851562 255.277344 345.1875 L 259.328125 348.902344 C 259.660156 349.234375 259.992188 349.914062 259.660156 350.59375 L 259.328125 352.269531 L 264.375 355.984375 C 265.054688 356.320312 265.054688 356.984375 265.054688 357.664062 L 265.054688 358.011719 L 267.410156 358.675781 C 268.089844 359.007812 268.753906 359.6875 268.421875 360.355469 L 268.421875 361.710938 L 273.136719 363.390625 L 275.160156 363.390625 L 274.496094 362.046875 C 274.148438 362.710938 274.148438 362.710938 273.816406 362.710938 " fill-opacity="1" fill-rule="nonzero"/><g clip-path="url(#efcd15f031)"><path fill="#040606" d="M 262.351562 360.019531 C 262.015625 360.019531 261.683594 359.6875 261.339844 359.355469 C 261.003906 359.007812 261.003906 358.675781 261.339844 357.996094 L 261.683594 357.332031 L 256.625 353.617188 C 255.957031 353.28125 255.957031 352.617188 255.957031 351.9375 L 256.289062 350.246094 L 251.5625 345.863281 C 251.230469 345.53125 250.898438 345.1875 251.230469 344.519531 C 251.230469 344.1875 251.5625 343.839844 251.5625 343.507812 L 248.539062 340.816406 C 248.195312 340.472656 247.863281 340.140625 247.863281 339.460938 L 248.195312 336.089844 L 243.8125 332.042969 C 243.480469 331.710938 243.148438 331.03125 243.480469 330.699219 L 243.8125 328.007812 L 239.097656 322.945312 C 238.417969 322.269531 238.417969 321.601562 239.097656 320.921875 L 240.445312 319.578125 L 235.730469 314.183594 C 235.050781 313.503906 235.050781 312.828125 235.730469 312.160156 L 236.394531 311.480469 L 232.015625 306.089844 C 231.679688 305.421875 231.679688 304.742188 232.015625 304.0625 L 233.707031 302.054688 L 228.992188 295.980469 C 228.644531 295.300781 228.644531 294.621094 228.992188 293.957031 L 229.992188 292.613281 L 226.289062 285.875 C 225.957031 285.195312 225.957031 284.515625 226.289062 284.183594 L 226.96875 283.167969 L 223.253906 277.445312 C 222.917969 276.765625 222.917969 276.085938 223.253906 275.753906 L 224.597656 274.074219 L 221.226562 268.667969 L 221.226562 267.65625 L 221.5625 265.644531 L 219.550781 262.261719 C 219.203125 261.929688 219.203125 261.265625 219.550781 260.917969 L 220.894531 257.546875 L 218.871094 255.191406 C 218.539062 254.859375 218.539062 254.179688 218.539062 253.847656 L 219.550781 250.476562 L 218.191406 247.441406 C 218.191406 247.109375 217.859375 246.761719 218.191406 246.429688 L 218.539062 244.40625 C 209.097656 257.214844 203.703125 272.382812 203.703125 289.242188 C 203.703125 325.96875 229.992188 356.320312 265.054688 362.710938 L 265.386719 361.03125 L 262.351562 360.019531 " fill-opacity="1" fill-rule="nonzero"/></g><g clip-path="url(#a7ce951a59)"><path fill="#040606" d="M 278.53125 214.402344 C 273.484375 214.402344 268.753906 214.734375 264.042969 215.746094 L 263.363281 216.425781 C 263.707031 216.425781 263.707031 216.757812 264.042969 217.09375 C 264.375 217.4375 264.042969 218.105469 263.707031 218.449219 L 262.015625 220.808594 C 262.351562 220.808594 262.695312 221.140625 263.027344 221.488281 C 263.363281 221.820312 263.363281 222.152344 263.027344 222.832031 L 261.683594 227.210938 L 262.015625 227.210938 C 262.363281 227.210938 262.695312 227.546875 263.027344 227.890625 C 263.363281 228.226562 263.363281 228.558594 263.363281 229.238281 L 262.363281 233.617188 C 262.695312 233.617188 263.027344 233.949219 263.027344 233.949219 C 263.363281 234.296875 263.707031 234.628906 263.363281 235.308594 L 263.027344 240.355469 C 263.363281 240.355469 264.042969 240.355469 264.375 240.703125 C 264.71875 241.035156 265.054688 241.367188 265.054688 242.046875 L 265.054688 250.808594 L 265.386719 250.476562 C 265.734375 250.132812 266.398438 250.476562 266.730469 250.476562 C 267.078125 250.808594 267.410156 251.144531 267.410156 251.820312 L 267.078125 259.90625 C 267.410156 259.574219 268.089844 259.90625 268.753906 259.90625 C 269.101562 260.25 269.433594 260.585938 269.433594 261.265625 L 269.433594 268.667969 L 270.445312 268.667969 C 271.113281 269.015625 271.457031 269.347656 271.457031 270.027344 L 272.125 277.097656 C 272.472656 276.765625 273.136719 276.765625 273.484375 277.097656 C 273.816406 277.445312 274.496094 277.777344 274.496094 278.109375 L 275.160156 285.859375 L 276.171875 285.859375 C 276.503906 286.207031 276.851562 286.539062 276.851562 286.871094 L 277.863281 293.957031 L 278.875 293.957031 C 279.210938 293.957031 279.886719 294.621094 279.886719 294.96875 L 282.246094 303.050781 C 282.578125 302.71875 282.910156 302.71875 283.257812 303.050781 C 283.921875 303.050781 284.269531 303.730469 284.269531 304.0625 L 286.625 312.160156 L 287.636719 312.160156 C 288.304688 312.160156 288.652344 312.828125 288.652344 313.160156 L 290.660156 319.910156 L 291.671875 319.910156 C 292.351562 319.910156 292.6875 320.242188 292.6875 320.921875 L 295.042969 327.328125 L 295.722656 327.328125 C 296.402344 327.328125 296.734375 327.660156 297.066406 328.328125 L 299.769531 335.078125 C 300.101562 334.746094 300.4375 334.746094 300.78125 334.746094 C 301.113281 334.746094 301.792969 335.078125 301.792969 335.410156 L 304.484375 340.472656 L 304.832031 340.472656 C 305.496094 340.472656 306.175781 340.804688 306.507812 341.484375 L 308.53125 345.519531 C 308.867188 345.519531 309.210938 345.1875 309.542969 345.519531 C 309.878906 345.519531 310.222656 345.863281 310.558594 346.199219 L 312.582031 348.554688 C 312.914062 348.554688 312.914062 348.222656 313.246094 348.222656 C 313.925781 348.222656 314.257812 348.554688 314.605469 348.886719 L 316.28125 351.257812 C 316.617188 351.257812 316.960938 351.257812 317.296875 351.589844 L 317.972656 352.257812 C 339.214844 339.460938 353.371094 315.863281 353.371094 289.230469 C 353.371094 248.105469 320 214.402344 278.53125 214.402344 " fill-opacity="1" fill-rule="nonzero"/></g><path fill="#040606" d="M 221.90625 243.394531 L 221.226562 246.761719 L 222.585938 249.796875 C 222.917969 250.132812 222.917969 250.476562 222.585938 250.808594 L 221.574219 253.847656 L 223.585938 256.203125 C 223.585938 256.535156 223.929688 256.535156 223.929688 256.871094 L 223.929688 256.535156 L 224.597656 250.808594 C 224.265625 250.808594 223.585938 250.808594 223.253906 250.476562 C 222.917969 250.132812 222.585938 249.464844 222.917969 249.117188 L 224.265625 243.726562 L 223.585938 243.726562 C 223.253906 243.726562 222.917969 243.394531 222.585938 243.058594 C 222.238281 242.714844 222.238281 242.046875 222.585938 241.703125 L 223.253906 239.675781 C 222.585938 240.355469 221.90625 241.367188 221.226562 242.046875 L 221.226562 241.703125 C 221.90625 242.046875 222.238281 242.714844 221.90625 243.394531 " fill-opacity="1" fill-rule="nonzero"/></svg>