<svg xmlns="http://www.w3.org/2000/svg" xmlns:xlink="http://www.w3.org/1999/xlink" width="1080" zoomAndPan="magnify" viewBox="0 0 810 809.999993" height="1080" preserveAspectRatio="xMidYMid meet" version="1.0"><defs><clipPath id="5d497d2ff0"><path d="M 0 16.707031 L 439 16.707031 L 439 456 L 0 456 Z M 0 16.707031 " clip-rule="nonzero"/></clipPath><clipPath id="0f1892ef63"><path d="M 455 522 L 726 522 L 726 792.957031 L 455 792.957031 Z M 455 522 " clip-rule="nonzero"/></clipPath></defs><g clip-path="url(#5d497d2ff0)"><path fill="#f9fdbe" d="M 438.75 236.152344 C 438.75 239.742188 438.660156 243.328125 438.484375 246.914062 C 438.308594 250.496094 438.046875 254.074219 437.695312 257.644531 C 437.339844 261.21875 436.902344 264.777344 436.375 268.328125 C 435.847656 271.878906 435.234375 275.414062 434.535156 278.933594 C 433.835938 282.453125 433.046875 285.953125 432.175781 289.433594 C 431.304688 292.914062 430.347656 296.371094 429.304688 299.808594 C 428.261719 303.242188 427.136719 306.648438 425.925781 310.027344 C 424.714844 313.40625 423.425781 316.753906 422.050781 320.066406 C 420.675781 323.382812 419.222656 326.664062 417.6875 329.90625 C 416.152344 333.152344 414.539062 336.355469 412.847656 339.519531 C 411.152344 342.6875 409.386719 345.808594 407.539062 348.886719 C 405.695312 351.964844 403.773438 354.996094 401.777344 357.980469 C 399.785156 360.964844 397.71875 363.894531 395.578125 366.777344 C 393.441406 369.660156 391.230469 372.488281 388.953125 375.265625 C 386.675781 378.039062 384.332031 380.753906 381.921875 383.414062 C 379.511719 386.074219 377.035156 388.671875 374.496094 391.207031 C 371.957031 393.746094 369.359375 396.21875 366.699219 398.628906 C 364.039062 401.039062 361.320312 403.382812 358.546875 405.660156 C 355.769531 407.9375 352.941406 410.144531 350.054688 412.28125 C 347.171875 414.417969 344.238281 416.484375 341.253906 418.480469 C 338.269531 420.472656 335.234375 422.390625 332.15625 424.238281 C 329.078125 426.082031 325.953125 427.851562 322.789062 429.542969 C 319.621094 431.234375 316.414062 432.847656 313.167969 434.382812 C 309.925781 435.914062 306.644531 437.371094 303.324219 438.742188 C 300.007812 440.117188 296.660156 441.40625 293.28125 442.617188 C 289.898438 443.824219 286.492188 444.949219 283.054688 445.992188 C 279.621094 447.035156 276.160156 447.992188 272.679688 448.863281 C 269.195312 449.734375 265.695312 450.519531 262.171875 451.222656 C 258.652344 451.921875 255.117188 452.535156 251.5625 453.0625 C 248.011719 453.589844 244.449219 454.027344 240.878906 454.378906 C 237.304688 454.730469 233.726562 454.996094 230.140625 455.171875 C 226.554688 455.347656 222.964844 455.433594 219.375 455.433594 C 215.785156 455.433594 212.195312 455.347656 208.609375 455.171875 C 205.023438 454.996094 201.445312 454.730469 197.871094 454.378906 C 194.300781 454.027344 190.738281 453.589844 187.1875 453.0625 C 183.632812 452.535156 180.097656 451.921875 176.578125 451.222656 C 173.054688 450.519531 169.554688 449.734375 166.070312 448.863281 C 162.589844 447.992188 159.128906 447.035156 155.695312 445.992188 C 152.257812 444.949219 148.851562 443.824219 145.46875 442.617188 C 142.089844 441.40625 138.742188 440.117188 135.421875 438.742188 C 132.105469 437.371094 128.824219 435.914062 125.578125 434.382812 C 122.335938 432.847656 119.128906 431.234375 115.960938 429.542969 C 112.796875 427.851562 109.671875 426.082031 106.59375 424.238281 C 103.515625 422.390625 100.480469 420.472656 97.496094 418.480469 C 94.511719 416.484375 91.578125 414.417969 88.695312 412.28125 C 85.808594 410.144531 82.980469 407.9375 80.203125 405.660156 C 77.429688 403.382812 74.710938 401.039062 72.050781 398.628906 C 69.390625 396.21875 66.792969 393.746094 64.253906 391.207031 C 61.714844 388.671875 59.238281 386.074219 56.828125 383.414062 C 54.417969 380.753906 52.074219 378.039062 49.796875 375.265625 C 47.519531 372.488281 45.308594 369.660156 43.171875 366.777344 C 41.03125 363.894531 38.964844 360.964844 36.972656 357.980469 C 34.976562 354.996094 33.054688 351.964844 31.210938 348.886719 C 29.363281 345.808594 27.597656 342.6875 25.902344 339.519531 C 24.210938 336.355469 22.597656 333.152344 21.0625 329.90625 C 19.527344 326.664062 18.074219 323.382812 16.699219 320.066406 C 15.324219 316.753906 14.035156 313.40625 12.824219 310.027344 C 11.613281 306.648438 10.488281 303.242188 9.445312 299.808594 C 8.402344 296.371094 7.445312 292.914062 6.574219 289.433594 C 5.703125 285.953125 4.914062 282.453125 4.214844 278.933594 C 3.515625 275.414062 2.902344 271.878906 2.375 268.328125 C 1.847656 264.777344 1.410156 261.21875 1.054688 257.644531 C 0.703125 254.074219 0.441406 250.496094 0.265625 246.914062 C 0.0898438 243.328125 0 239.742188 0 236.152344 C 0 232.5625 0.0898438 228.976562 0.265625 225.394531 C 0.441406 221.808594 0.703125 218.230469 1.054688 214.660156 C 1.410156 211.085938 1.847656 207.527344 2.375 203.976562 C 2.902344 200.425781 3.515625 196.890625 4.214844 193.371094 C 4.914062 189.851562 5.703125 186.351562 6.574219 182.871094 C 7.445312 179.390625 8.402344 175.933594 9.445312 172.5 C 10.488281 169.0625 11.613281 165.65625 12.824219 162.277344 C 14.035156 158.898438 15.324219 155.550781 16.699219 152.238281 C 18.074219 148.921875 19.527344 145.640625 21.0625 142.398438 C 22.597656 139.152344 24.210938 135.949219 25.902344 132.785156 C 27.597656 129.617188 29.363281 126.496094 31.210938 123.417969 C 33.054688 120.339844 34.976562 117.308594 36.972656 114.324219 C 38.964844 111.34375 41.03125 108.410156 43.171875 105.527344 C 45.308594 102.644531 47.519531 99.816406 49.796875 97.042969 C 52.074219 94.265625 54.417969 91.550781 56.828125 88.890625 C 59.238281 86.234375 61.714844 83.632812 64.253906 81.097656 C 66.792969 78.558594 69.390625 76.085938 72.050781 73.675781 C 74.710938 71.265625 77.429688 68.921875 80.203125 66.644531 C 82.980469 64.367188 85.808594 62.160156 88.695312 60.023438 C 91.578125 57.886719 94.511719 55.820312 97.496094 53.824219 C 100.480469 51.832031 103.515625 49.914062 106.59375 48.066406 C 109.671875 46.222656 112.796875 44.453125 115.960938 42.761719 C 119.128906 41.070312 122.335938 39.457031 125.582031 37.921875 C 128.824219 36.390625 132.105469 34.933594 135.421875 33.5625 C 138.742188 32.1875 142.089844 30.898438 145.46875 29.6875 C 148.851562 28.480469 152.257812 27.355469 155.695312 26.3125 C 159.128906 25.269531 162.589844 24.3125 166.070312 23.441406 C 169.554688 22.570312 173.054688 21.785156 176.578125 21.082031 C 180.097656 20.382812 183.632812 19.769531 187.1875 19.242188 C 190.738281 18.71875 194.300781 18.277344 197.871094 17.925781 C 201.445312 17.574219 205.023438 17.308594 208.609375 17.132812 C 212.195312 16.957031 215.785156 16.871094 219.375 16.871094 C 222.964844 16.871094 226.554688 16.957031 230.140625 17.132812 C 233.726562 17.308594 237.304688 17.574219 240.878906 17.925781 C 244.449219 18.277344 248.011719 18.71875 251.5625 19.242188 C 255.117188 19.769531 258.652344 20.382812 262.171875 21.082031 C 265.695312 21.785156 269.195312 22.570312 272.679688 23.441406 C 276.160156 24.3125 279.621094 25.269531 283.054688 26.3125 C 286.492188 27.355469 289.898438 28.480469 293.28125 29.6875 C 296.660156 30.898438 300.007812 32.1875 303.324219 33.5625 C 306.644531 34.933594 309.925781 36.390625 313.167969 37.921875 C 316.414062 39.457031 319.621094 41.070312 322.789062 42.761719 C 325.953125 44.453125 329.078125 46.222656 332.15625 48.066406 C 335.234375 49.914062 338.269531 51.832031 341.253906 53.824219 C 344.238281 55.820312 347.171875 57.886719 350.054688 60.023438 C 352.941406 62.160156 355.769531 64.367188 358.546875 66.644531 C 361.320312 68.921875 364.039062 71.265625 366.699219 73.675781 C 369.359375 76.085938 371.957031 78.558594 374.496094 81.097656 C 377.035156 83.632812 379.511719 86.234375 381.921875 88.890625 C 384.332031 91.550781 386.675781 94.265625 388.953125 97.042969 C 391.230469 99.816406 393.441406 102.644531 395.578125 105.527344 C 397.71875 108.410156 399.785156 111.34375 401.777344 114.324219 C 403.773438 117.308594 405.695312 120.339844 407.539062 123.417969 C 409.386719 126.496094 411.152344 129.617188 412.847656 132.785156 C 414.539062 135.949219 416.152344 139.152344 417.6875 142.398438 C 419.222656 145.640625 420.675781 148.921875 422.050781 152.238281 C 423.425781 155.550781 424.714844 158.898438 425.925781 162.277344 C 427.136719 165.65625 428.261719 169.0625 429.304688 172.5 C 430.347656 175.933594 431.304688 179.390625 432.175781 182.871094 C 433.046875 186.351562 433.835938 189.851562 434.535156 193.371094 C 435.234375 196.890625 435.847656 200.425781 436.375 203.976562 C 436.902344 207.527344 437.339844 211.085938 437.695312 214.660156 C 438.046875 218.230469 438.308594 221.808594 438.484375 225.394531 C 438.660156 228.976562 438.75 232.5625 438.75 236.152344 Z M 438.75 236.152344 " fill-opacity="1" fill-rule="nonzero"/></g><path fill="#f9fdbe" d="M 691.875 354.226562 C 691.875 355.882812 691.835938 357.539062 691.753906 359.195312 C 691.671875 360.847656 691.550781 362.5 691.386719 364.148438 C 691.226562 365.796875 691.023438 367.4375 690.777344 369.078125 C 690.535156 370.714844 690.253906 372.347656 689.929688 373.972656 C 689.605469 375.597656 689.242188 377.210938 688.839844 378.820312 C 688.4375 380.425781 687.996094 382.019531 687.515625 383.605469 C 687.035156 385.191406 686.515625 386.765625 685.957031 388.324219 C 685.398438 389.882812 684.800781 391.425781 684.167969 392.957031 C 683.535156 394.488281 682.863281 396 682.152344 397.5 C 681.445312 398.996094 680.699219 400.476562 679.917969 401.9375 C 679.136719 403.398438 678.320312 404.835938 677.46875 406.257812 C 676.617188 407.679688 675.730469 409.078125 674.8125 410.457031 C 673.890625 411.832031 672.9375 413.1875 671.949219 414.515625 C 670.960938 415.847656 669.945312 417.152344 668.890625 418.433594 C 667.839844 419.714844 666.757812 420.96875 665.644531 422.195312 C 664.535156 423.421875 663.390625 424.621094 662.21875 425.792969 C 661.046875 426.964844 659.847656 428.105469 658.621094 429.21875 C 657.390625 430.328125 656.136719 431.410156 654.855469 432.460938 C 653.578125 433.511719 652.269531 434.53125 650.941406 435.519531 C 649.609375 436.503906 648.253906 437.457031 646.875 438.378906 C 645.5 439.296875 644.097656 440.183594 642.679688 441.035156 C 641.257812 441.886719 639.816406 442.703125 638.355469 443.484375 C 636.890625 444.265625 635.414062 445.007812 633.914062 445.71875 C 632.417969 446.425781 630.902344 447.097656 629.371094 447.730469 C 627.839844 448.363281 626.296875 448.960938 624.734375 449.519531 C 623.175781 450.078125 621.601562 450.597656 620.015625 451.078125 C 618.429688 451.558594 616.832031 452 615.226562 452.402344 C 613.621094 452.804688 612.003906 453.167969 610.378906 453.488281 C 608.753906 453.8125 607.121094 454.097656 605.480469 454.339844 C 603.84375 454.582031 602.199219 454.785156 600.550781 454.949219 C 598.898438 455.109375 597.246094 455.230469 595.59375 455.3125 C 593.9375 455.394531 592.28125 455.433594 590.625 455.433594 C 588.96875 455.433594 587.3125 455.394531 585.65625 455.3125 C 584 455.230469 582.351562 455.109375 580.699219 454.949219 C 579.050781 454.785156 577.40625 454.582031 575.769531 454.339844 C 574.128906 454.097656 572.496094 453.8125 570.871094 453.488281 C 569.246094 453.167969 567.628906 452.804688 566.023438 452.402344 C 564.414062 452 562.820312 451.558594 561.234375 451.078125 C 559.648438 450.597656 558.074219 450.078125 556.515625 449.519531 C 554.953125 448.960938 553.410156 448.363281 551.878906 447.730469 C 550.347656 447.097656 548.832031 446.425781 547.335938 445.71875 C 545.835938 445.007812 544.355469 444.265625 542.894531 443.484375 C 541.433594 442.703125 539.992188 441.886719 538.570312 441.035156 C 537.152344 440.183594 535.75 439.296875 534.375 438.378906 C 532.996094 437.457031 531.640625 436.503906 530.308594 435.519531 C 528.980469 434.53125 527.671875 433.511719 526.394531 432.460938 C 525.113281 431.410156 523.855469 430.328125 522.628906 429.21875 C 521.402344 428.105469 520.203125 426.964844 519.03125 425.792969 C 517.859375 424.621094 516.714844 423.421875 515.605469 422.195312 C 514.492188 420.96875 513.410156 419.714844 512.359375 418.433594 C 511.304688 417.152344 510.289062 415.847656 509.300781 414.515625 C 508.3125 413.1875 507.359375 411.832031 506.4375 410.457031 C 505.519531 409.078125 504.632812 407.679688 503.78125 406.257812 C 502.929688 404.835938 502.113281 403.398438 501.332031 401.9375 C 500.550781 400.476562 499.804688 398.996094 499.097656 397.5 C 498.386719 396 497.714844 394.488281 497.082031 392.957031 C 496.449219 391.425781 495.851562 389.882812 495.292969 388.324219 C 494.734375 386.765625 494.214844 385.191406 493.734375 383.605469 C 493.253906 382.019531 492.8125 380.425781 492.410156 378.820312 C 492.007812 377.210938 491.644531 375.597656 491.320312 373.972656 C 490.996094 372.347656 490.714844 370.714844 490.472656 369.078125 C 490.226562 367.4375 490.023438 365.796875 489.863281 364.148438 C 489.699219 362.5 489.578125 360.847656 489.496094 359.195312 C 489.414062 357.539062 489.375 355.882812 489.375 354.226562 C 489.375 352.570312 489.414062 350.914062 489.496094 349.261719 C 489.578125 347.605469 489.699219 345.957031 489.863281 344.308594 C 490.023438 342.660156 490.226562 341.015625 490.472656 339.378906 C 490.714844 337.738281 490.996094 336.109375 491.320312 334.484375 C 491.644531 332.859375 492.007812 331.242188 492.410156 329.636719 C 492.8125 328.03125 493.253906 326.433594 493.734375 324.847656 C 494.214844 323.265625 494.734375 321.691406 495.292969 320.132812 C 495.851562 318.574219 496.449219 317.027344 497.082031 315.496094 C 497.714844 313.96875 498.386719 312.453125 499.097656 310.957031 C 499.804688 309.457031 500.550781 307.980469 501.332031 306.519531 C 502.113281 305.058594 502.929688 303.617188 503.78125 302.195312 C 504.632812 300.777344 505.519531 299.378906 506.4375 298 C 507.359375 296.621094 508.3125 295.269531 509.300781 293.9375 C 510.289062 292.609375 511.304688 291.304688 512.359375 290.023438 C 513.410156 288.742188 514.492188 287.488281 515.605469 286.261719 C 516.714844 285.035156 517.859375 283.835938 519.03125 282.664062 C 520.203125 281.492188 521.402344 280.351562 522.628906 279.238281 C 523.855469 278.125 525.113281 277.042969 526.394531 275.992188 C 527.671875 274.941406 528.980469 273.925781 530.308594 272.9375 C 531.640625 271.949219 532.996094 270.996094 534.375 270.078125 C 535.75 269.15625 537.152344 268.269531 538.570312 267.417969 C 539.992188 266.566406 541.433594 265.75 542.894531 264.972656 C 544.355469 264.191406 545.835938 263.445312 547.335938 262.738281 C 548.832031 262.027344 550.347656 261.359375 551.878906 260.722656 C 553.410156 260.089844 554.953125 259.496094 556.515625 258.9375 C 558.074219 258.378906 559.648438 257.859375 561.234375 257.378906 C 562.820312 256.898438 564.414062 256.457031 566.023438 256.054688 C 567.628906 255.652344 569.246094 255.289062 570.871094 254.964844 C 572.496094 254.640625 574.128906 254.359375 575.769531 254.117188 C 577.40625 253.871094 579.050781 253.671875 580.699219 253.507812 C 582.351562 253.34375 584 253.222656 585.65625 253.140625 C 587.3125 253.0625 588.96875 253.019531 590.625 253.019531 C 592.28125 253.019531 593.9375 253.0625 595.59375 253.140625 C 597.246094 253.222656 598.898438 253.34375 600.550781 253.507812 C 602.199219 253.671875 603.84375 253.871094 605.480469 254.117188 C 607.121094 254.359375 608.753906 254.640625 610.378906 254.964844 C 612.003906 255.289062 613.621094 255.652344 615.226562 256.054688 C 616.835938 256.457031 618.429688 256.898438 620.015625 257.378906 C 621.601562 257.859375 623.175781 258.378906 624.734375 258.9375 C 626.296875 259.496094 627.839844 260.089844 629.371094 260.722656 C 630.902344 261.359375 632.417969 262.027344 633.914062 262.738281 C 635.414062 263.445312 636.890625 264.191406 638.355469 264.972656 C 639.816406 265.75 641.257812 266.566406 642.679688 267.417969 C 644.097656 268.269531 645.5 269.15625 646.875 270.078125 C 648.253906 270.996094 649.609375 271.949219 650.9375 272.9375 C 652.269531 273.925781 653.578125 274.941406 654.855469 275.992188 C 656.136719 277.042969 657.390625 278.125 658.621094 279.238281 C 659.847656 280.351562 661.046875 281.492188 662.21875 282.664062 C 663.390625 283.835938 664.535156 285.035156 665.644531 286.261719 C 666.757812 287.488281 667.839844 288.742188 668.890625 290.023438 C 669.945312 291.304688 670.960938 292.609375 671.949219 293.9375 C 672.9375 295.269531 673.890625 296.621094 674.8125 298 C 675.730469 299.378906 676.617188 300.777344 677.46875 302.195312 C 678.320312 303.617188 679.136719 305.058594 679.917969 306.519531 C 680.699219 307.980469 681.445312 309.457031 682.152344 310.957031 C 682.863281 312.453125 683.535156 313.96875 684.167969 315.496094 C 684.800781 317.027344 685.398438 318.574219 685.957031 320.132812 C 686.515625 321.691406 687.035156 323.265625 687.515625 324.847656 C 687.996094 326.433594 688.4375 328.03125 688.839844 329.636719 C 689.242188 331.242188 689.605469 332.859375 689.929688 334.484375 C 690.253906 336.109375 690.535156 337.738281 690.777344 339.378906 C 691.023438 341.015625 691.226562 342.660156 691.386719 344.308594 C 691.550781 345.957031 691.671875 347.605469 691.753906 349.261719 C 691.835938 350.914062 691.875 352.570312 691.875 354.226562 Z M 691.875 354.226562 " fill-opacity="1" fill-rule="nonzero"/><g clip-path="url(#0f1892ef63)"><path fill="#f9fdbe" d="M 725.625 657.847656 C 725.625 660.058594 725.570312 662.265625 725.460938 664.46875 C 725.355469 666.675781 725.191406 668.878906 724.976562 671.074219 C 724.757812 673.273438 724.488281 675.464844 724.164062 677.648438 C 723.839844 679.835938 723.460938 682.007812 723.03125 684.175781 C 722.601562 686.339844 722.117188 688.496094 721.578125 690.636719 C 721.042969 692.78125 720.453125 694.90625 719.8125 697.019531 C 719.171875 699.132812 718.476562 701.230469 717.734375 703.308594 C 716.988281 705.390625 716.195312 707.449219 715.347656 709.488281 C 714.503906 711.53125 713.609375 713.546875 712.664062 715.542969 C 711.71875 717.542969 710.726562 719.511719 709.683594 721.460938 C 708.644531 723.410156 707.554688 725.328125 706.417969 727.222656 C 705.28125 729.117188 704.101562 730.984375 702.875 732.820312 C 701.644531 734.65625 700.375 736.460938 699.058594 738.234375 C 697.742188 740.007812 696.382812 741.75 694.980469 743.457031 C 693.578125 745.164062 692.136719 746.835938 690.652344 748.472656 C 689.167969 750.109375 687.648438 751.707031 686.085938 753.269531 C 684.523438 754.828125 682.921875 756.351562 681.285156 757.835938 C 679.648438 759.320312 677.976562 760.761719 676.269531 762.160156 C 674.558594 763.5625 672.820312 764.921875 671.042969 766.238281 C 669.269531 767.550781 667.464844 768.824219 665.625 770.050781 C 663.789062 771.277344 661.921875 772.457031 660.027344 773.59375 C 658.132812 774.730469 656.210938 775.816406 654.261719 776.859375 C 652.316406 777.898438 650.34375 778.890625 648.34375 779.835938 C 646.347656 780.78125 644.328125 781.675781 642.289062 782.519531 C 640.246094 783.367188 638.183594 784.160156 636.105469 784.902344 C 634.023438 785.648438 631.925781 786.339844 629.8125 786.980469 C 627.699219 787.621094 625.570312 788.210938 623.425781 788.746094 C 621.285156 789.285156 619.128906 789.769531 616.960938 790.199219 C 614.796875 790.628906 612.617188 791.007812 610.433594 791.332031 C 608.246094 791.65625 606.054688 791.925781 603.855469 792.140625 C 601.660156 792.359375 599.457031 792.519531 597.25 792.628906 C 595.042969 792.738281 592.835938 792.792969 590.625 792.792969 C 588.414062 792.792969 586.207031 792.738281 584 792.628906 C 581.792969 792.519531 579.589844 792.359375 577.394531 792.140625 C 575.195312 791.925781 573 791.65625 570.816406 791.332031 C 568.628906 791.007812 566.453125 790.628906 564.289062 790.199219 C 562.121094 789.769531 559.964844 789.285156 557.824219 788.746094 C 555.679688 788.210938 553.550781 787.621094 551.4375 786.980469 C 549.320312 786.339844 547.226562 785.648438 545.144531 784.902344 C 543.0625 784.160156 541.003906 783.367188 538.960938 782.519531 C 536.921875 781.675781 534.902344 780.78125 532.90625 779.835938 C 530.90625 778.890625 528.933594 777.898438 526.988281 776.859375 C 525.039062 775.816406 523.117188 774.730469 521.222656 773.59375 C 519.324219 772.457031 517.460938 771.277344 515.621094 770.050781 C 513.785156 768.824219 511.980469 767.550781 510.207031 766.238281 C 508.429688 764.921875 506.691406 763.5625 504.980469 762.160156 C 503.273438 760.761719 501.601562 759.320312 499.964844 757.835938 C 498.328125 756.351562 496.726562 754.828125 495.164062 753.269531 C 493.601562 751.707031 492.082031 750.109375 490.597656 748.472656 C 489.113281 746.835938 487.671875 745.164062 486.269531 743.457031 C 484.867188 741.75 483.507812 740.007812 482.191406 738.234375 C 480.875 736.460938 479.605469 734.65625 478.375 732.820312 C 477.148438 730.984375 475.96875 729.117188 474.832031 727.222656 C 473.695312 725.328125 472.605469 723.410156 471.566406 721.460938 C 470.523438 719.511719 469.53125 717.542969 468.585938 715.542969 C 467.640625 713.546875 466.746094 711.53125 465.902344 709.488281 C 465.054688 707.449219 464.261719 705.390625 463.515625 703.308594 C 462.773438 701.230469 462.078125 699.132812 461.4375 697.019531 C 460.796875 694.90625 460.207031 692.78125 459.671875 690.636719 C 459.132812 688.496094 458.648438 686.339844 458.21875 684.175781 C 457.789062 682.007812 457.410156 679.835938 457.085938 677.648438 C 456.761719 675.464844 456.492188 673.273438 456.273438 671.074219 C 456.058594 668.878906 455.894531 666.675781 455.789062 664.46875 C 455.679688 662.265625 455.625 660.058594 455.625 657.847656 C 455.625 655.640625 455.679688 653.433594 455.789062 651.226562 C 455.894531 649.023438 456.058594 646.820312 456.273438 644.621094 C 456.492188 642.425781 456.761719 640.234375 457.085938 638.050781 C 457.410156 635.863281 457.789062 633.6875 458.21875 631.523438 C 458.648438 629.355469 459.132812 627.203125 459.671875 625.0625 C 460.207031 622.917969 460.796875 620.789062 461.4375 618.675781 C 462.078125 616.5625 462.773438 614.46875 463.515625 612.386719 C 464.261719 610.308594 465.054688 608.25 465.902344 606.207031 C 466.746094 604.167969 467.640625 602.148438 468.585938 600.152344 C 469.53125 598.15625 470.523438 596.183594 471.566406 594.238281 C 472.605469 592.289062 473.695312 590.367188 474.832031 588.476562 C 475.96875 586.582031 477.148438 584.714844 478.375 582.878906 C 479.605469 581.042969 480.875 579.238281 482.191406 577.464844 C 483.507812 575.691406 484.867188 573.949219 486.269531 572.242188 C 487.671875 570.535156 489.113281 568.863281 490.597656 567.226562 C 492.082031 565.589844 493.601562 563.992188 495.164062 562.429688 C 496.726562 560.867188 498.328125 559.347656 499.964844 557.863281 C 501.601562 556.378906 503.273438 554.9375 504.980469 553.535156 C 506.691406 552.136719 508.429688 550.777344 510.207031 549.460938 C 511.980469 548.144531 513.785156 546.875 515.621094 545.648438 C 517.460938 544.421875 519.324219 543.242188 521.222656 542.105469 C 523.117188 540.96875 525.039062 539.882812 526.984375 538.839844 C 528.933594 537.800781 530.90625 536.804688 532.90625 535.863281 C 534.902344 534.917969 536.921875 534.023438 538.960938 533.179688 C 541.003906 532.332031 543.066406 531.539062 545.144531 530.792969 C 547.226562 530.050781 549.320312 529.359375 551.4375 528.71875 C 553.550781 528.074219 555.679688 527.488281 557.824219 526.949219 C 559.964844 526.414062 562.121094 525.929688 564.289062 525.5 C 566.453125 525.066406 568.628906 524.691406 570.816406 524.367188 C 573 524.042969 575.195312 523.773438 577.394531 523.554688 C 579.589844 523.339844 581.792969 523.175781 584 523.070312 C 586.207031 522.960938 588.414062 522.90625 590.625 522.90625 C 592.835938 522.90625 595.042969 522.960938 597.25 523.070312 C 599.457031 523.175781 601.660156 523.339844 603.855469 523.554688 C 606.054688 523.773438 608.246094 524.042969 610.433594 524.367188 C 612.617188 524.691406 614.796875 525.066406 616.960938 525.5 C 619.128906 525.929688 621.285156 526.414062 623.425781 526.949219 C 625.570312 527.488281 627.699219 528.074219 629.8125 528.71875 C 631.925781 529.359375 634.023438 530.050781 636.105469 530.792969 C 638.183594 531.539062 640.246094 532.332031 642.289062 533.179688 C 644.328125 534.023438 646.347656 534.917969 648.34375 535.863281 C 650.34375 536.804688 652.316406 537.800781 654.261719 538.839844 C 656.210938 539.882812 658.132812 540.96875 660.027344 542.105469 C 661.921875 543.242188 663.789062 544.421875 665.625 545.648438 C 667.464844 546.875 669.269531 548.144531 671.042969 549.460938 C 672.820312 550.777344 674.558594 552.136719 676.269531 553.535156 C 677.976562 554.9375 679.648438 556.378906 681.285156 557.863281 C 682.921875 559.347656 684.523438 560.867188 686.085938 562.429688 C 687.648438 563.992188 689.167969 565.589844 690.652344 567.226562 C 692.136719 568.863281 693.578125 570.535156 694.980469 572.242188 C 696.382812 573.949219 697.742188 575.691406 699.058594 577.464844 C 700.375 579.238281 701.644531 581.042969 702.875 582.878906 C 704.101562 584.714844 705.28125 586.582031 706.417969 588.476562 C 707.554688 590.367188 708.644531 592.289062 709.683594 594.238281 C 710.726562 596.183594 711.71875 598.15625 712.664062 600.152344 C 713.609375 602.148438 714.503906 604.167969 715.347656 606.207031 C 716.195312 608.25 716.988281 610.308594 717.734375 612.386719 C 718.476562 614.46875 719.171875 616.5625 719.8125 618.675781 C 720.453125 620.789062 721.042969 622.917969 721.578125 625.0625 C 722.117188 627.203125 722.601562 629.355469 723.03125 631.523438 C 723.460938 633.6875 723.839844 635.863281 724.164062 638.050781 C 724.488281 640.234375 724.757812 642.425781 724.976562 644.621094 C 725.191406 646.820312 725.355469 649.023438 725.460938 651.226562 C 725.570312 653.433594 725.625 655.640625 725.625 657.847656 Z M 725.625 657.847656 " fill-opacity="1" fill-rule="nonzero"/></g><path fill="#f9fdbe" d="M 810 219.285156 C 810 220.941406 809.917969 222.59375 809.757812 224.246094 C 809.59375 225.894531 809.351562 227.53125 809.027344 229.15625 C 808.703125 230.78125 808.300781 232.386719 807.820312 233.972656 C 807.339844 235.558594 806.78125 237.117188 806.144531 238.648438 C 805.511719 240.179688 804.804688 241.675781 804.023438 243.140625 C 803.242188 244.601562 802.390625 246.019531 801.46875 247.398438 C 800.546875 248.777344 799.558594 250.105469 798.507812 251.386719 C 797.457031 252.667969 796.34375 253.894531 795.171875 255.066406 C 794 256.238281 792.773438 257.351562 791.492188 258.402344 C 790.210938 259.453125 788.878906 260.4375 787.5 261.359375 C 786.121094 262.28125 784.703125 263.132812 783.238281 263.914062 C 781.777344 264.695312 780.28125 265.402344 778.75 266.035156 C 777.214844 266.671875 775.65625 267.226562 774.070312 267.710938 C 772.484375 268.191406 770.878906 268.59375 769.25 268.914062 C 767.625 269.238281 765.988281 269.480469 764.335938 269.644531 C 762.6875 269.808594 761.03125 269.886719 759.375 269.886719 C 757.71875 269.886719 756.0625 269.808594 754.414062 269.644531 C 752.761719 269.480469 751.125 269.238281 749.5 268.914062 C 747.871094 268.59375 746.265625 268.191406 744.679688 267.710938 C 743.09375 267.226562 741.535156 266.671875 740 266.035156 C 738.46875 265.402344 736.972656 264.695312 735.511719 263.914062 C 734.046875 263.132812 732.628906 262.28125 731.25 261.359375 C 729.871094 260.4375 728.539062 259.453125 727.257812 258.402344 C 725.976562 257.351562 724.75 256.238281 723.578125 255.066406 C 722.40625 253.894531 721.292969 252.667969 720.242188 251.386719 C 719.191406 250.105469 718.203125 248.777344 717.28125 247.398438 C 716.359375 246.019531 715.507812 244.601562 714.726562 243.140625 C 713.945312 241.675781 713.238281 240.179688 712.601562 238.648438 C 711.96875 237.117188 711.410156 235.558594 710.929688 233.972656 C 710.449219 232.386719 710.046875 230.78125 709.722656 229.15625 C 709.398438 227.53125 709.15625 225.894531 708.992188 224.246094 C 708.832031 222.59375 708.75 220.941406 708.75 219.285156 C 708.75 217.628906 708.832031 215.972656 708.992188 214.324219 C 709.15625 212.675781 709.398438 211.039062 709.722656 209.414062 C 710.046875 207.785156 710.449219 206.179688 710.929688 204.59375 C 711.410156 203.007812 711.96875 201.449219 712.601562 199.917969 C 713.238281 198.386719 713.945312 196.890625 714.726562 195.429688 C 715.507812 193.96875 716.359375 192.550781 717.28125 191.171875 C 718.203125 189.792969 719.1875 188.464844 720.242188 187.183594 C 721.292969 185.902344 722.40625 184.675781 723.578125 183.503906 C 724.75 182.332031 725.976562 181.21875 727.257812 180.167969 C 728.539062 179.117188 729.871094 178.128906 731.25 177.210938 C 732.628906 176.289062 734.046875 175.4375 735.511719 174.65625 C 736.972656 173.875 738.46875 173.167969 740 172.53125 C 741.535156 171.898438 743.09375 171.339844 744.679688 170.859375 C 746.265625 170.378906 747.871094 169.976562 749.5 169.652344 C 751.125 169.332031 752.761719 169.085938 754.414062 168.925781 C 756.0625 168.761719 757.71875 168.679688 759.375 168.679688 C 761.03125 168.679688 762.6875 168.761719 764.335938 168.925781 C 765.988281 169.085938 767.625 169.332031 769.25 169.652344 C 770.878906 169.976562 772.484375 170.378906 774.070312 170.859375 C 775.65625 171.339844 777.214844 171.898438 778.75 172.53125 C 780.28125 173.167969 781.777344 173.875 783.238281 174.65625 C 784.703125 175.4375 786.121094 176.289062 787.5 177.210938 C 788.878906 178.128906 790.210938 179.117188 791.492188 180.167969 C 792.773438 181.21875 794 182.332031 795.171875 183.503906 C 796.34375 184.675781 797.457031 185.902344 798.507812 187.183594 C 799.558594 188.464844 800.546875 189.792969 801.46875 191.171875 C 802.390625 192.550781 803.242188 193.96875 804.023438 195.429688 C 804.804688 196.890625 805.511719 198.386719 806.144531 199.917969 C 806.78125 201.449219 807.339844 203.007812 807.820312 204.59375 C 808.300781 206.179688 808.703125 207.785156 809.027344 209.414062 C 809.351562 211.039062 809.59375 212.675781 809.757812 214.324219 C 809.917969 215.972656 810 217.628906 810 219.285156 Z M 810 219.285156 " fill-opacity="1" fill-rule="nonzero"/></svg>