<svg xmlns="http://www.w3.org/2000/svg" xmlns:xlink="http://www.w3.org/1999/xlink" width="500" zoomAndPan="magnify" viewBox="0 0 375 374.999991" height="500" preserveAspectRatio="xMidYMid meet" version="1.0"><path fill="#100f0d" d="M 41.589844 373.632812 C 26.007812 365 10.742188 349.609375 1.480469 333.425781 C 0.0390625 330.914062 0.460938 327.746094 2.507812 325.699219 L 217.464844 110.742188 C 218.976562 109.226562 221.433594 109.226562 222.945312 110.742188 L 264.25 152.046875 C 265.765625 153.5625 265.765625 156.015625 264.25 157.53125 L 49.230469 372.550781 C 47.207031 374.574219 44.089844 375.019531 41.589844 373.632812 " fill-opacity="1" fill-rule="nonzero"/><path fill="#100f0d" d="M 261.835938 129.09375 L 355.355469 35.578125 L 355.667969 35.890625 C 356.1875 36.414062 357.027344 36.441406 357.578125 35.949219 L 374.363281 21.109375 C 374.953125 20.585938 374.980469 19.675781 374.425781 19.117188 L 355.875 0.570312 C 355.316406 0.0117188 354.40625 0.0429688 353.882812 0.628906 L 339.042969 17.414062 C 338.554688 17.964844 338.578125 18.804688 339.101562 19.328125 L 339.417969 19.640625 L 245.902344 113.15625 L 230.488281 109.566406 L 265.425781 144.503906 L 261.835938 129.09375 " fill-opacity="1" fill-rule="nonzero"/></svg>