<svg xmlns="http://www.w3.org/2000/svg" xmlns:xlink="http://www.w3.org/1999/xlink" width="500" zoomAndPan="magnify" viewBox="0 0 375 374.999991" height="500" preserveAspectRatio="xMidYMid meet" version="1.0"><defs><clipPath id="cf2191ba57"><path d="M 145.3125 0 L 374.558594 0 L 374.558594 345 L 145.3125 345 Z M 145.3125 0 " clip-rule="nonzero"/></clipPath></defs><path fill="#040606" d="M 234.703125 357.320312 C 233.867188 358.152344 233.003906 358.152344 232.171875 358.152344 C 231.339844 358.152344 229.640625 357.320312 229.640625 356.457031 L 225.414062 348.898438 L 224.582031 348.898438 C 222.882812 348.898438 221.21875 348.035156 220.351562 347.203125 L 211.929688 330.355469 C 210.265625 330.355469 209.433594 330.355469 207.734375 330.355469 C 206.902344 330.355469 205.203125 329.523438 205.203125 327.824219 L 197.613281 310.980469 C 196.78125 311.8125 195.949219 311.8125 195.082031 311.8125 C 193.417969 311.8125 192.554688 310.980469 192.554688 309.28125 L 185.828125 292.4375 C 184.996094 293.269531 184.128906 293.269531 182.464844 293.269531 C 180.769531 293.269531 179.9375 291.570312 179.9375 290.738281 L 174.011719 271.363281 C 173.179688 271.363281 172.34375 272.195312 171.511719 271.363281 C 170.648438 271.363281 168.984375 269.664062 168.984375 268.832031 L 162.226562 248.589844 C 161.390625 249.457031 160.527344 249.457031 158.863281 249.457031 C 157.164062 249.457031 156.332031 247.757812 156.332031 246.925781 L 149.574219 224.15625 C 148.742188 225.019531 147.042969 225.019531 145.378906 225.019531 C 144.511719 224.15625 143.679688 223.320312 142.847656 221.65625 L 140.320312 201.414062 L 136.957031 201.414062 C 136.089844 200.582031 135.257812 199.71875 135.257812 198.886719 L 131.894531 178.675781 L 131.03125 178.675781 C 130.199219 179.511719 128.535156 179.511719 126.835938 178.675781 C 125.96875 177.8125 125.136719 176.980469 124.304688 175.28125 L 122.605469 155.90625 C 121.773438 156.738281 120.941406 156.738281 120.941406 156.738281 C 120.078125 156.738281 119.246094 156.738281 119.246094 155.90625 C 118.414062 155.074219 117.546875 154.207031 117.546875 152.542969 L 118.414062 132.300781 L 117.546875 132.300781 C 116.714844 133.132812 115.050781 132.300781 114.183594 132.300781 C 113.351562 131.46875 112.519531 130.636719 112.519531 128.941406 L 113.351562 107.867188 L 112.519531 108.730469 C 111.65625 109.5625 109.988281 108.730469 109.125 108.730469 C 108.292969 107.867188 107.460938 107.035156 107.460938 105.335938 L 107.460938 81.765625 L 106.628906 81.765625 C 105.761719 82.597656 104.097656 81.765625 103.230469 80.898438 C 102.398438 80.066406 101.566406 79.203125 101.566406 77.535156 L 103.230469 63.1875 C 102.398438 63.1875 100.703125 63.1875 99.867188 62.355469 C 99.035156 61.523438 99.035156 59.824219 99.035156 58.992188 L 102.398438 45.511719 L 100.703125 45.511719 C 99.867188 45.511719 99.035156 44.679688 98.171875 43.8125 C 97.339844 42.980469 97.339844 41.28125 98.171875 40.449219 L 102.398438 29.496094 L 100.703125 28.664062 C 99.867188 28.664062 98.171875 26.964844 98.171875 26.132812 C 98.171875 25.269531 98.171875 23.605469 99.035156 22.738281 C 98.171875 23.605469 97.339844 23.605469 96.507812 24.4375 C 94.808594 35.390625 93.976562 48.871094 95.640625 64.886719 C 99.867188 99.441406 112.519531 150.84375 120.109375 171.917969 C 124.304688 183.703125 131.0625 200.550781 136.957031 215.730469 C 142.847656 230.046875 147.910156 241.867188 148.742188 246.058594 C 150.4375 253.652344 159.695312 270.496094 174.042969 292.4375 C 188.359375 315.175781 213.628906 348.898438 218.6875 353.960938 C 219.519531 354.792969 220.386719 355.625 221.21875 356.457031 C 223.75 358.988281 227.976562 363.214844 233.003906 367.410156 C 236.398438 366.578125 238.929688 365.746094 242.292969 364.878906 C 241.460938 364.878906 241.460938 364.046875 241.460938 364.046875 L 234.703125 357.320312 " fill-opacity="1" fill-rule="nonzero"/><path fill="#040606" d="M 211.097656 361.515625 C 204.371094 355.625 179.070312 320.234375 164.753906 298.328125 C 154.632812 282.316406 141.152344 261.242188 138.621094 250.289062 C 137.789062 246.058594 132.726562 234.273438 126.835938 220.792969 C 120.941406 205.644531 113.351562 187.933594 109.988281 176.113281 C 102.398438 154.207031 89.75 102.804688 85.554688 67.417969 C 83.855469 53.933594 84.6875 41.28125 85.554688 31.195312 C 82.15625 32.859375 79.628906 35.390625 76.265625 37.917969 C 77.128906 38.75 77.128906 39.617188 76.265625 41.28125 L 72.070312 51.402344 L 72.902344 51.402344 C 73.734375 51.402344 74.566406 52.269531 75.433594 53.101562 C 76.265625 53.933594 76.265625 54.765625 76.265625 56.464844 L 72.902344 68.28125 C 73.734375 68.28125 74.566406 68.28125 75.433594 69.113281 C 76.265625 69.945312 77.097656 70.777344 76.265625 72.476562 L 74.566406 85.960938 C 75.433594 85.128906 77.128906 85.960938 77.964844 86.792969 C 78.796875 87.65625 79.628906 88.488281 79.628906 90.1875 L 79.628906 111.226562 L 81.324219 110.394531 C 82.15625 109.5625 83.855469 110.394531 84.6875 110.394531 C 85.554688 111.226562 86.386719 112.09375 86.386719 113.757812 L 86.386719 135.664062 L 87.21875 135.664062 C 88.082031 134.832031 89.75 135.664062 90.613281 135.664062 C 91.445312 136.53125 92.277344 137.363281 92.277344 139.058594 L 91.445312 158.4375 L 93.976562 158.4375 C 94.808594 159.269531 95.640625 160.101562 96.507812 161.796875 L 98.171875 181.207031 C 99.035156 180.34375 100.703125 180.34375 101.535156 181.207031 L 104.0625 183.703125 L 107.460938 204.777344 L 110.820312 204.777344 C 111.65625 205.644531 112.519531 206.476562 112.519531 207.308594 L 115.050781 226.683594 C 115.882812 225.851562 116.714844 225.851562 118.414062 226.683594 C 119.246094 226.683594 120.078125 228.382812 120.941406 229.214844 L 127.667969 251.152344 C 128.535156 250.289062 129.367188 250.289062 131.03125 250.289062 C 132.726562 250.289062 133.558594 251.988281 133.558594 252.820312 L 140.320312 274.726562 C 141.152344 274.726562 141.984375 273.890625 142.847656 274.726562 C 143.679688 274.726562 145.378906 276.421875 145.378906 277.253906 L 151.273438 295.796875 C 152.105469 295.796875 152.96875 294.933594 153.800781 295.796875 C 155.464844 295.796875 156.332031 296.628906 156.332031 298.328125 L 163.058594 315.175781 L 165.585938 315.175781 C 167.285156 315.175781 168.117188 316.039062 168.984375 317.703125 L 176.539062 335.414062 C 177.40625 334.550781 178.238281 334.550781 179.902344 334.550781 C 180.769531 334.550781 182.433594 335.414062 182.433594 336.25 L 189.191406 349.730469 L 190.855469 349.730469 C 192.554688 349.730469 194.25 350.5625 195.082031 351.394531 L 200.976562 362.382812 C 201.84375 361.515625 202.675781 361.515625 203.507812 361.515625 C 204.339844 361.515625 205.203125 362.382812 206.035156 363.214844 L 209.398438 369.941406 L 210.265625 369.941406 C 211.929688 369.941406 212.796875 370.773438 213.628906 371.636719 L 214.460938 372.46875 C 216.15625 372.46875 218.6875 371.636719 220.351562 371.636719 C 216.988281 369.105469 214.460938 366.578125 212.796875 364.046875 C 212.796875 362.382812 211.929688 361.515625 211.097656 361.515625 " fill-opacity="1" fill-rule="nonzero"/><path fill="#040606" d="M 263.332031 357.320312 C 261.667969 358.152344 259.96875 357.320312 259.136719 355.625 L 254.910156 348.898438 C 254.078125 348.898438 253.246094 349.730469 253.246094 349.730469 C 251.546875 349.730469 250.714844 348.898438 249.882812 347.203125 L 246.488281 339.609375 C 245.652344 339.609375 244.820312 340.476562 243.957031 339.609375 C 243.125 339.609375 241.425781 338.777344 241.425781 337.914062 L 238.0625 330.355469 L 237.230469 330.355469 C 235.535156 330.355469 233.835938 329.523438 233.003906 327.824219 L 224.582031 313.476562 C 223.75 313.476562 222.882812 314.34375 221.21875 313.476562 C 220.386719 313.476562 218.6875 312.644531 218.6875 310.980469 L 211.929688 294.933594 L 210.265625 294.933594 C 208.566406 294.933594 207.734375 294.101562 206.902344 292.4375 L 200.976562 276.390625 C 200.144531 276.390625 199.3125 277.253906 198.445312 276.390625 C 196.78125 276.390625 195.949219 274.726562 195.949219 273.890625 L 190.890625 256.179688 L 188.359375 256.179688 C 186.660156 256.179688 185.828125 254.484375 185.828125 253.652344 L 179.9375 234.273438 C 179.070312 235.140625 178.238281 235.140625 177.40625 235.140625 C 175.707031 235.140625 174.875 233.441406 174.875 232.578125 L 168.984375 210.671875 C 168.117188 211.535156 166.453125 211.535156 165.585938 210.671875 C 163.921875 209.839844 163.089844 209.007812 163.089844 207.308594 L 160.527344 187.933594 L 158.03125 187.933594 C 157.164062 187.101562 156.332031 186.234375 156.332031 185.402344 L 152.96875 166.859375 C 152.105469 167.691406 150.4375 167.691406 148.742188 166.859375 C 147.078125 166.027344 146.210938 165.160156 146.210938 163.496094 L 144.546875 145.785156 C 143.679688 146.652344 142.015625 146.652344 141.152344 145.785156 C 139.488281 144.953125 139.488281 144.085938 139.488281 142.421875 L 140.320312 123.046875 C 139.488281 123.878906 137.789062 123.046875 136.089844 123.046875 C 135.257812 122.179688 134.425781 121.347656 134.425781 119.652344 L 135.257812 99.441406 L 134.425781 99.441406 C 133.59375 100.273438 131.894531 100.273438 131.0625 99.441406 C 130.199219 98.609375 129.367188 97.746094 129.367188 96.082031 L 129.367188 74.175781 C 128.535156 75.007812 126.835938 74.175781 126.003906 73.308594 C 125.171875 72.476562 124.304688 71.644531 124.304688 69.945312 L 126.003906 56.464844 C 125.171875 56.464844 123.472656 56.464844 123.472656 55.628906 C 122.640625 54.765625 121.773438 53.066406 122.640625 52.234375 L 126.003906 39.617188 L 125.171875 39.617188 C 124.304688 39.617188 123.472656 38.75 122.640625 37.917969 C 121.773438 37.085938 121.773438 35.390625 122.640625 34.558594 L 126.835938 24.4375 L 125.171875 23.605469 C 124.304688 23.605469 123.472656 22.738281 122.640625 21.074219 C 122.640625 20.207031 122.640625 18.542969 123.472656 17.679688 L 127.699219 11.785156 C 127.699219 11.785156 126.835938 11.785156 126.835938 10.953125 C 122.640625 12.617188 119.277344 14.316406 115.882812 15.179688 C 115.882812 15.179688 115.882812 16.011719 115.050781 16.011719 L 109.988281 22.738281 C 110.820312 22.738281 111.6875 23.605469 112.519531 24.4375 C 113.351562 25.269531 113.351562 26.132812 112.519531 27.796875 L 108.292969 37.917969 L 109.15625 37.917969 C 109.988281 37.917969 110.820312 38.75 111.6875 39.617188 C 112.519531 40.449219 112.519531 41.28125 112.519531 42.980469 L 109.15625 54.765625 C 109.988281 54.765625 110.820312 55.628906 111.6875 55.628906 C 112.519531 56.464844 113.351562 57.296875 112.519531 58.992188 L 110.820312 72.476562 C 111.6875 71.644531 113.351562 72.476562 114.21875 73.308594 C 115.050781 74.175781 115.882812 75.007812 115.882812 76.671875 L 115.882812 99.441406 L 117.582031 98.609375 C 118.414062 97.746094 120.109375 98.609375 120.941406 98.609375 C 120.078125 100.273438 120.078125 101.140625 120.078125 102.804688 L 119.246094 123.878906 L 120.078125 123.878906 C 120.941406 123.046875 122.605469 123.878906 123.472656 123.878906 C 124.304688 124.710938 125.136719 125.578125 125.136719 127.242188 L 125.136719 146.652344 L 127.667969 146.652344 C 128.5 147.484375 129.367188 148.316406 130.199219 150.011719 L 131.894531 169.390625 C 132.726562 168.558594 134.394531 168.558594 135.257812 169.390625 C 136.089844 170.222656 136.957031 171.085938 137.789062 171.917969 L 141.152344 192.128906 C 141.984375 191.296875 143.679688 192.128906 144.511719 192.128906 C 145.378906 192.992188 146.210938 193.824219 146.210938 194.691406 L 148.742188 214.035156 C 149.574219 213.203125 150.40625 213.203125 152.105469 214.035156 L 154.632812 216.5625 L 162.226562 237.636719 C 163.058594 236.804688 163.890625 236.804688 165.585938 236.804688 C 167.285156 236.804688 168.117188 237.636719 168.117188 239.335938 L 174.875 261.242188 L 177.40625 261.242188 C 179.070312 261.242188 179.902344 262.90625 179.902344 263.773438 L 185.828125 281.484375 C 186.660156 281.484375 187.492188 280.617188 188.359375 281.484375 C 189.191406 281.484375 190.855469 282.316406 190.855469 284.011719 L 197.613281 300.859375 L 200.144531 300.859375 C 201.84375 300.859375 202.675781 301.691406 203.507812 303.355469 L 211.097656 321.066406 C 211.929688 320.234375 212.796875 320.234375 214.460938 320.234375 C 215.324219 320.234375 216.15625 321.066406 216.988281 321.898438 L 223.75 335.414062 L 225.414062 335.414062 C 227.109375 335.414062 228.808594 336.25 229.640625 337.082031 L 235.535156 348.035156 C 236.367188 347.203125 237.230469 347.203125 238.0625 347.203125 C 238.894531 347.203125 240.59375 348.035156 240.59375 348.867188 L 243.957031 355.625 L 244.789062 355.625 C 246.488281 355.625 247.320312 356.457031 248.183594 357.320312 L 251.546875 362.347656 C 255.773438 360.683594 260.800781 358.988281 265.03125 356.457031 L 264.199219 356.457031 C 264.199219 357.320312 264.199219 357.320312 263.332031 357.320312 " fill-opacity="1" fill-rule="nonzero"/><path fill="#040606" d="M 199.3125 371.636719 C 198.445312 371.636719 197.613281 370.773438 196.78125 369.941406 L 192.554688 362.382812 L 191.722656 362.382812 C 190.023438 362.382812 188.359375 361.515625 187.492188 360.683594 L 179.070312 343.839844 C 178.238281 344.671875 176.539062 344.671875 175.707031 344.671875 C 174.875 344.671875 173.179688 343.839844 173.179688 342.140625 L 165.585938 325.296875 C 164.753906 325.296875 163.921875 326.160156 163.058594 326.160156 C 161.390625 326.160156 160.527344 325.296875 159.695312 323.597656 L 152.96875 306.75 C 152.105469 307.617188 151.273438 307.617188 149.574219 307.617188 C 147.910156 307.617188 147.042969 305.917969 147.042969 305.054688 L 141.152344 286.542969 C 140.320312 286.542969 139.488281 287.375 138.621094 286.542969 C 136.957031 286.542969 136.089844 284.84375 136.089844 284.011719 L 129.367188 262.9375 C 128.535156 263.804688 127.667969 263.804688 125.96875 263.804688 C 124.304688 263.804688 123.472656 262.105469 123.472656 261.273438 L 116.714844 238.503906 C 115.882812 239.367188 114.183594 239.367188 112.519531 239.367188 C 111.65625 238.503906 109.988281 237.671875 109.988281 235.972656 L 107.460938 215.765625 L 104.0625 215.765625 C 103.230469 214.898438 102.398438 214.066406 102.398438 213.234375 L 99.035156 192.992188 L 98.171875 192.992188 C 97.339844 193.824219 95.640625 193.824219 93.976562 192.992188 C 93.109375 192.160156 92.277344 191.328125 91.445312 189.628906 L 89.75 170.253906 C 88.914062 171.085938 87.21875 171.085938 85.554688 170.253906 C 84.6875 169.390625 83.855469 168.558594 83.855469 166.890625 L 84.6875 145.820312 L 83.855469 146.652344 C 82.988281 147.484375 81.324219 146.652344 80.492188 146.652344 C 79.628906 145.820312 78.796875 144.953125 78.796875 143.289062 L 79.628906 121.347656 L 77.964844 120.515625 C 77.097656 121.347656 75.433594 120.515625 74.566406 120.515625 C 73.734375 119.652344 72.902344 118.820312 72.902344 117.121094 L 72.902344 93.550781 L 72.070312 93.550781 C 71.203125 94.382812 69.539062 93.550781 68.675781 92.71875 C 67.84375 91.851562 67.011719 91.019531 67.011719 89.320312 L 68.675781 75.007812 C 67.84375 75.007812 66.144531 75.007812 65.3125 74.175781 C 64.480469 73.308594 63.613281 71.644531 64.480469 70.777344 L 67.84375 57.296875 L 66.144531 57.296875 C 65.3125 57.296875 63.613281 56.464844 63.613281 55.628906 C 62.78125 54.765625 62.78125 53.101562 63.613281 52.234375 L 66.144531 45.511719 C 64.480469 47.175781 61.949219 48.871094 60.25 50.570312 C 61.082031 51.402344 61.082031 52.234375 60.25 53.933594 L 56.023438 64.886719 L 56.890625 64.886719 C 57.722656 64.886719 58.585938 65.71875 59.417969 66.582031 C 60.25 67.417969 60.25 68.25 60.25 69.945312 L 56.890625 81.730469 C 57.722656 81.730469 58.585938 81.730469 59.417969 82.597656 C 60.25 83.429688 61.082031 85.128906 61.082031 85.960938 L 59.417969 99.441406 L 60.25 99.441406 C 61.117188 98.609375 62.78125 99.441406 63.648438 99.441406 C 64.480469 100.273438 65.3125 101.140625 65.3125 102.804688 L 65.3125 126.410156 L 67.011719 125.578125 C 67.84375 124.710938 69.539062 124.710938 71.203125 125.578125 C 72.070312 126.410156 72.902344 127.242188 72.902344 128.941406 L 72.070312 150.84375 L 72.902344 150.011719 C 73.734375 149.179688 75.433594 150.011719 76.265625 150.011719 C 77.128906 150.84375 77.964844 151.679688 77.964844 153.375 L 77.964844 172.75 C 78.796875 171.917969 79.628906 172.75 81.324219 172.75 C 82.15625 173.617188 82.988281 174.449219 83.855469 176.113281 L 85.554688 195.523438 C 86.386719 194.691406 88.050781 194.691406 88.914062 195.523438 L 91.445312 198.054688 L 94.808594 220.792969 C 95.640625 219.960938 97.339844 220.792969 98.171875 220.792969 C 99.035156 221.65625 99.867188 222.457031 99.867188 223.320312 L 102.398438 241.867188 C 103.230469 241.035156 104.0625 241.035156 105.761719 241.867188 C 106.59375 241.867188 107.460938 243.5625 108.292969 244.394531 L 115.050781 265.46875 C 115.882812 264.605469 116.714844 264.605469 118.414062 264.605469 C 120.078125 264.605469 120.941406 265.46875 120.941406 267.132812 L 127.667969 288.207031 C 128.535156 288.207031 129.367188 287.375 130.199219 288.207031 C 131.894531 288.207031 132.726562 289.871094 132.726562 290.738281 L 138.621094 307.582031 C 139.488281 307.582031 140.320312 306.75 141.152344 307.582031 C 141.984375 307.582031 143.679688 308.417969 143.679688 310.113281 L 150.4375 326.128906 L 152.96875 326.128906 C 154.632812 326.128906 155.5 326.960938 156.332031 328.65625 L 163.921875 345.503906 C 164.753906 344.671875 165.585938 344.671875 166.417969 344.671875 C 167.285156 344.671875 168.949219 345.503906 168.949219 346.335938 L 175.707031 358.988281 L 176.539062 358.988281 C 178.238281 358.988281 179.902344 359.820312 180.769531 360.683594 L 185.828125 370.773438 C 186.660156 369.941406 187.492188 369.941406 188.359375 369.941406 C 189.191406 369.941406 190.890625 370.773438 190.890625 371.636719 L 192.554688 375 C 195.917969 375 200.144531 375 203.507812 374.132812 L 202.675781 371.636719 C 200.976562 371.636719 200.144531 371.636719 199.3125 371.636719 " fill-opacity="1" fill-rule="nonzero"/><path fill="#040606" d="M 273.453125 347.203125 C 271.789062 347.203125 270.921875 346.335938 270.089844 345.535156 L 264.199219 337.914062 C 264.199219 338.777344 262.5 338.777344 261.667969 338.777344 C 260.835938 338.777344 259.136719 337.914062 259.136719 336.25 L 254.910156 329.523438 L 254.078125 329.523438 C 252.378906 329.523438 250.714844 328.65625 249.847656 327.824219 L 242.292969 311.8125 C 241.425781 312.644531 240.59375 312.644531 238.894531 312.644531 C 238.0625 312.644531 236.398438 311.8125 236.398438 310.113281 L 229.640625 294.101562 L 227.941406 294.101562 C 226.277344 294.101562 225.414062 293.269531 224.582031 291.570312 L 218.6875 275.558594 C 217.855469 276.390625 216.988281 276.390625 216.15625 275.558594 C 214.460938 275.558594 213.628906 273.890625 213.628906 273.027344 L 208.566406 255.347656 L 206.035156 255.347656 C 204.371094 255.347656 203.507812 253.652344 203.507812 252.820312 L 197.613281 233.441406 C 196.78125 234.273438 195.949219 234.273438 195.082031 233.441406 C 193.417969 233.441406 192.554688 231.746094 192.554688 230.914062 L 186.660156 209.007812 C 185.828125 209.839844 184.128906 209.839844 183.296875 209.007812 C 182.464844 208.140625 181.601562 207.308594 180.769531 205.609375 L 178.238281 186.234375 L 175.707031 186.234375 L 173.179688 183.703125 L 169.816406 165.160156 C 168.984375 165.992188 167.285156 165.992188 165.621094 165.160156 C 164.753906 164.328125 163.921875 163.496094 163.089844 161.796875 L 161.390625 144.085938 C 160.558594 144.953125 158.863281 144.953125 158.03125 144.085938 C 156.332031 143.253906 156.332031 142.421875 156.332031 140.726562 L 156.332031 121.347656 C 155.5 122.179688 153.800781 121.347656 152.96875 121.347656 C 152.105469 120.515625 151.273438 119.652344 151.273438 117.988281 L 152.136719 97.746094 L 151.273438 97.746094 C 150.4375 98.609375 148.742188 98.609375 147.910156 97.746094 C 147.078125 96.914062 146.210938 96.082031 146.210938 94.382812 L 146.210938 72.476562 C 145.378906 73.308594 143.679688 72.476562 142.847656 71.609375 C 142.015625 70.777344 141.183594 69.082031 141.183594 68.25 L 142.847656 54.765625 C 142.015625 54.765625 140.320312 54.765625 139.488281 53.933594 C 136.957031 53.933594 136.957031 53.101562 136.957031 51.402344 L 140.320312 38.75 L 139.488281 38.75 C 138.621094 38.75 137.789062 37.917969 136.957031 37.085938 C 136.089844 36.253906 136.089844 34.558594 136.957031 33.726562 L 141.152344 23.605469 L 139.488281 23.605469 C 138.621094 23.605469 137.789062 21.90625 136.957031 21.074219 C 136.957031 20.207031 136.957031 18.542969 137.789062 17.710938 L 142.015625 11.785156 C 141.152344 11.785156 140.320312 10.121094 139.488281 9.289062 L 139.488281 7.589844 C 137.789062 8.421875 135.257812 8.421875 133.59375 9.289062 L 133.59375 10.121094 C 134.425781 10.953125 133.59375 12.652344 132.726562 13.484375 L 128.535156 18.542969 C 129.367188 18.542969 130.199219 19.375 131.0625 20.207031 C 131.894531 21.074219 131.894531 21.90625 131.0625 23.605469 L 127.667969 32.859375 L 128.535156 32.859375 C 129.367188 32.859375 130.199219 33.726562 131.0625 34.558594 C 131.894531 35.390625 131.894531 36.222656 131.894531 37.917969 L 128.535156 48.871094 C 129.367188 48.871094 130.199219 49.738281 130.199219 49.738281 C 131.0625 50.570312 131.894531 51.402344 131.894531 53.101562 L 131.03125 65.75 C 131.894531 65.75 133.558594 65.75 134.425781 66.582031 C 135.257812 67.417969 136.089844 68.25 136.089844 69.945312 L 136.089844 91.851562 L 136.957031 91.851562 C 137.789062 91.019531 139.488281 91.019531 140.320312 91.851562 C 141.152344 92.71875 141.984375 93.550781 141.984375 95.214844 L 141.152344 115.457031 C 141.984375 114.625 143.679688 114.625 144.511719 115.457031 C 145.378906 116.289062 146.210938 117.121094 146.210938 118.820312 L 146.210938 137.363281 L 148.742188 137.363281 C 149.574219 138.226562 150.40625 139.058594 151.273438 140.726562 L 152.9375 158.4375 C 153.800781 157.605469 155.464844 157.605469 156.332031 158.4375 C 157.164062 159.269531 158.863281 160.101562 158.863281 160.964844 L 162.226562 180.34375 L 164.753906 180.34375 C 165.585938 181.207031 166.417969 182.039062 166.417969 182.871094 L 168.949219 200.550781 L 171.480469 200.550781 C 172.3125 200.550781 174.011719 202.25 174.011719 203.113281 L 179.902344 223.320312 C 180.769531 223.320312 181.601562 222.457031 182.433594 223.320312 C 184.128906 223.320312 184.964844 225.019531 184.964844 225.851562 L 190.855469 246.058594 L 193.386719 246.058594 C 195.082031 246.058594 195.917969 247.757812 195.917969 248.589844 L 200.976562 265.46875 L 202.675781 265.46875 C 204.339844 265.46875 205.171875 266.300781 205.171875 268 L 211.097656 284.011719 L 212.761719 284.011719 C 214.460938 284.011719 215.292969 284.84375 216.15625 286.511719 L 222.882812 303.355469 C 223.714844 302.523438 224.582031 302.523438 225.414062 303.355469 C 226.246094 303.355469 227.941406 304.222656 227.941406 305.054688 L 234.667969 317.703125 L 235.535156 317.703125 C 237.199219 317.703125 238.894531 318.535156 239.726562 320.234375 L 244.789062 330.355469 C 245.652344 330.355469 246.488281 329.488281 247.320312 330.355469 C 248.152344 330.355469 249.847656 331.1875 249.847656 332.019531 L 253.210938 338.777344 L 254.078125 338.777344 C 255.742188 338.777344 256.605469 339.609375 257.441406 340.441406 L 261.667969 346.335938 C 262.5 346.335938 263.332031 346.335938 264.164062 347.203125 L 270.089844 352.261719 C 271.753906 351.394531 272.621094 352.261719 273.453125 353.09375 C 274.285156 352.261719 275.984375 351.394531 276.816406 351.394531 L 274.285156 347.203125 C 275.152344 346.335938 274.320312 347.203125 273.453125 347.203125 " fill-opacity="1" fill-rule="nonzero"/><path fill="#040606" d="M 175.707031 370.773438 C 174.011719 370.773438 172.34375 369.941406 171.480469 369.105469 L 163.058594 353.960938 C 162.226562 354.792969 161.390625 354.792969 159.695312 354.792969 C 158.863281 354.792969 157.164062 353.960938 157.164062 352.261719 L 150.4375 336.25 C 149.574219 336.25 148.742188 337.082031 147.910156 337.082031 C 146.210938 337.082031 145.378906 336.25 144.511719 334.550781 L 137.789062 318.535156 C 136.957031 319.402344 136.089844 319.402344 134.425781 319.402344 C 132.726562 319.402344 131.894531 317.703125 131.894531 316.871094 L 125.96875 299.160156 C 125.136719 299.160156 124.304688 299.992188 123.472656 299.160156 C 121.773438 299.160156 120.941406 297.496094 120.941406 296.628906 L 115.050781 276.421875 C 114.183594 277.253906 113.351562 277.253906 111.65625 277.253906 C 109.988281 277.253906 109.125 275.589844 109.125 274.726562 L 102.398438 251.988281 C 101.535156 252.820312 99.867188 252.820312 98.171875 252.820312 C 97.339844 251.988281 95.640625 251.152344 95.640625 249.457031 L 93.109375 229.246094 L 89.75 229.246094 C 88.914062 228.382812 88.050781 227.550781 88.050781 226.683594 L 84.6875 207.308594 L 83.855469 208.140625 C 82.988281 209.007812 81.324219 209.007812 79.628906 208.140625 C 78.796875 207.308594 77.964844 206.476562 77.097656 204.777344 L 75.433594 185.402344 C 74.566406 186.234375 72.902344 186.234375 71.203125 185.402344 C 69.539062 184.570312 69.539062 183.703125 69.539062 182.039062 L 69.539062 160.964844 L 68.675781 161.796875 C 67.84375 162.632812 66.144531 162.632812 65.3125 161.796875 C 64.480469 160.964844 63.613281 160.101562 63.613281 158.4375 L 64.480469 136.53125 L 62.78125 136.53125 C 61.949219 137.363281 60.25 136.53125 59.417969 136.53125 C 58.585938 135.664062 57.722656 134.832031 57.722656 133.132812 L 57.722656 108.699219 L 56.890625 109.5625 C 56.023438 110.394531 54.359375 109.5625 53.527344 108.699219 C 52.660156 107.867188 52.660156 107.867188 51.828125 107.035156 L 51.828125 108.699219 L 48.464844 117.121094 L 53.527344 125.578125 C 54.359375 126.410156 54.359375 127.242188 54.359375 128.941406 L 52.660156 134 L 59.417969 147.484375 C 60.25 149.148438 60.25 150.011719 58.585938 151.679688 L 55.191406 155.90625 L 64.480469 171.085938 C 65.3125 172.75 65.3125 174.449219 64.480469 175.28125 L 62.78125 177.8125 L 72.070312 194.691406 C 72.902344 195.523438 72.902344 197.1875 72.070312 198.886719 L 70.371094 201.414062 L 83.023438 216.5625 C 83.855469 218.261719 83.855469 219.960938 83.023438 221.65625 L 77.964844 225.851562 L 88.914062 239.335938 C 89.75 241.035156 89.75 242.699219 88.914062 244.394531 L 87.21875 246.058594 L 99.035156 259.578125 C 100.703125 261.242188 100.703125 262.90625 99.035156 264.605469 L 96.507812 268 L 109.125 280.617188 C 109.988281 281.484375 110.820312 283.148438 109.988281 284.011719 L 109.125 290.738281 L 120.078125 300.859375 C 120.941406 301.691406 121.773438 302.558594 120.941406 304.222656 L 120.078125 312.644531 L 129.367188 321.066406 C 130.199219 321.898438 131.03125 322.765625 131.03125 324.460938 C 131.03125 325.296875 130.199219 326.128906 129.367188 326.960938 L 139.488281 336.25 C 140.320312 337.082031 141.152344 338.777344 140.320312 340.476562 L 139.488281 344.671875 L 152.105469 353.960938 C 153.800781 354.792969 153.800781 356.457031 153.800781 358.152344 L 153.800781 359.019531 L 159.695312 360.683594 C 161.390625 361.515625 163.058594 363.214844 162.226562 364.878906 L 162.226562 368.273438 L 174.011719 372.46875 L 179.070312 372.46875 L 177.40625 369.105469 C 176.539062 370.773438 176.539062 370.773438 175.707031 370.773438 " fill-opacity="1" fill-rule="nonzero"/><path fill="#040606" d="M 147.042969 364.046875 C 146.210938 364.046875 145.378906 363.214844 144.511719 362.382812 C 143.679688 361.515625 143.679688 360.683594 144.511719 358.988281 L 145.378906 357.320312 L 132.726562 348.035156 C 131.0625 347.203125 131.0625 345.535156 131.0625 343.839844 L 131.894531 339.609375 L 120.078125 328.65625 C 119.246094 327.824219 118.414062 326.960938 119.246094 325.296875 C 119.246094 324.460938 120.078125 323.597656 120.078125 322.765625 L 112.519531 316.039062 C 111.65625 315.175781 110.820312 314.34375 110.820312 312.644531 L 111.65625 304.222656 L 100.703125 294.101562 C 99.867188 293.269531 99.035156 291.570312 99.867188 290.738281 L 100.703125 284.011719 L 88.914062 271.363281 C 87.21875 269.664062 87.21875 268 88.914062 266.300781 L 92.277344 262.9375 L 80.492188 249.457031 C 78.796875 247.757812 78.796875 246.058594 80.492188 244.394531 L 82.15625 242.699219 L 71.203125 229.214844 C 70.371094 227.550781 70.371094 225.851562 71.203125 224.15625 L 75.433594 219.128906 L 63.648438 203.945312 C 62.78125 202.25 62.78125 200.550781 63.648438 198.886719 L 66.144531 195.523438 L 56.890625 178.675781 C 56.058594 176.980469 56.058594 175.28125 56.890625 174.449219 L 58.585938 171.917969 L 49.296875 157.605469 C 48.464844 155.90625 48.464844 154.207031 49.296875 153.375 L 52.660156 149.179688 L 44.238281 135.664062 L 44.238281 133.132812 L 45.070312 128.105469 L 40.042969 119.652344 C 39.179688 118.820312 39.179688 117.152344 40.042969 116.289062 L 43.40625 107.867188 L 38.34375 101.972656 C 37.511719 101.140625 37.511719 99.441406 37.511719 98.609375 L 40.042969 90.1875 L 36.648438 82.597656 C 36.648438 81.765625 35.816406 80.898438 36.648438 80.066406 L 37.511719 75.007812 C 13.910156 107.035156 0.425781 144.953125 0.425781 187.101562 C 0.425781 278.917969 66.144531 354.792969 153.800781 370.773438 L 154.632812 366.578125 L 147.042969 364.046875 " fill-opacity="1" fill-rule="nonzero"/><g clip-path="url(#cf2191ba57)"><path fill="#040606" d="M 187.492188 0 C 174.875 0 163.058594 0.832031 151.273438 3.363281 L 149.574219 5.058594 C 150.4375 5.058594 150.4375 5.894531 151.273438 6.726562 C 152.105469 7.589844 151.273438 9.253906 150.4375 10.121094 L 146.210938 16.011719 C 147.042969 16.011719 147.910156 16.84375 148.742188 17.710938 C 149.574219 18.542969 149.574219 19.375 148.742188 21.074219 L 145.378906 32.027344 L 146.210938 32.027344 C 147.078125 32.027344 147.910156 32.859375 148.742188 33.726562 C 149.574219 34.558594 149.574219 35.390625 149.574219 37.085938 L 147.078125 48.039062 C 147.910156 48.039062 148.742188 48.871094 148.742188 48.871094 C 149.574219 49.738281 150.4375 50.570312 149.574219 52.269531 L 148.742188 64.886719 C 149.574219 64.886719 151.273438 64.886719 152.105469 65.75 C 152.96875 66.582031 153.800781 67.417969 153.800781 69.113281 L 153.800781 91.019531 L 154.632812 90.1875 C 155.5 89.320312 157.164062 90.1875 157.996094 90.1875 C 158.863281 91.019531 159.695312 91.851562 159.695312 93.550781 L 158.863281 113.757812 C 159.695312 112.925781 161.390625 113.757812 163.058594 113.757812 C 163.921875 114.625 164.753906 115.457031 164.753906 117.152344 L 164.753906 135.664062 L 167.285156 135.664062 C 168.949219 136.53125 169.816406 137.363281 169.816406 139.058594 L 171.480469 156.738281 C 172.34375 155.90625 174.011719 155.90625 174.875 156.738281 C 175.707031 157.605469 177.40625 158.4375 177.40625 159.269531 L 179.070312 178.644531 L 181.601562 178.644531 C 182.433594 179.511719 183.296875 180.34375 183.296875 181.175781 L 185.828125 198.886719 L 188.359375 198.886719 C 189.191406 198.886719 190.890625 200.550781 190.890625 201.414062 L 196.78125 221.625 C 197.613281 220.792969 198.445312 220.792969 199.3125 221.625 C 200.976562 221.625 201.84375 223.320312 201.84375 224.15625 L 207.734375 244.394531 L 210.265625 244.394531 C 211.929688 244.394531 212.796875 246.058594 212.796875 246.894531 L 217.820312 263.773438 L 220.351562 263.773438 C 222.050781 263.773438 222.882812 264.605469 222.882812 266.300781 L 228.773438 282.316406 L 230.472656 282.316406 C 232.171875 282.316406 233.003906 283.148438 233.835938 284.8125 L 240.59375 301.691406 C 241.425781 300.859375 242.257812 300.859375 243.125 300.859375 C 243.957031 300.859375 245.652344 301.691406 245.652344 302.523438 L 252.378906 315.175781 L 253.246094 315.175781 C 254.910156 315.175781 256.605469 316.007812 257.441406 317.703125 L 262.5 327.792969 C 263.332031 327.792969 264.199219 326.960938 265.03125 327.792969 C 265.863281 327.792969 266.726562 328.65625 267.558594 329.488281 L 272.621094 335.382812 C 273.453125 335.382812 273.453125 334.550781 274.285156 334.550781 C 275.984375 334.550781 276.816406 335.382812 277.679688 336.214844 L 281.875 342.140625 C 282.707031 342.140625 283.574219 342.140625 284.40625 342.972656 L 286.105469 344.636719 C 339.203125 312.644531 374.59375 253.652344 374.59375 187.066406 C 374.59375 84.261719 291.164062 0 187.492188 0 " fill-opacity="1" fill-rule="nonzero"/></g><path fill="#040606" d="M 45.9375 72.476562 L 44.238281 80.898438 L 47.632812 88.488281 C 48.464844 89.320312 48.464844 90.1875 47.632812 91.019531 L 45.105469 98.609375 L 50.132812 104.503906 C 50.132812 105.335938 50.996094 105.335938 50.996094 106.167969 L 50.996094 105.335938 L 52.660156 91.019531 C 51.828125 91.019531 50.132812 91.019531 49.296875 90.1875 C 48.464844 89.320312 47.632812 87.65625 48.464844 86.792969 L 51.828125 73.308594 L 50.132812 73.308594 C 49.296875 73.308594 48.464844 72.476562 47.632812 71.644531 C 46.769531 70.777344 46.769531 69.113281 47.632812 68.25 L 49.296875 63.1875 C 47.632812 64.886719 45.9375 67.417969 44.238281 69.113281 L 44.238281 68.25 C 45.9375 69.113281 46.769531 70.777344 45.9375 72.476562 " fill-opacity="1" fill-rule="nonzero"/></svg>