<svg xmlns="http://www.w3.org/2000/svg" xmlns:xlink="http://www.w3.org/1999/xlink" width="500" zoomAndPan="magnify" viewBox="0 0 375 374.999991" height="500" preserveAspectRatio="xMidYMid meet" version="1.0"><path fill="#231815" d="M 187.5 0 C 83.945312 0 0 83.949219 0 187.5 C 0 291.054688 83.945312 375 187.5 375 C 291.050781 375 375 291.054688 375 187.5 C 375 83.949219 291.050781 0 187.5 0 Z M 187.5 15.910156 C 282.113281 15.910156 359.089844 92.886719 359.089844 187.5 C 359.089844 282.113281 282.113281 359.089844 187.5 359.089844 C 92.882812 359.089844 15.910156 282.113281 15.910156 187.5 C 15.910156 92.886719 92.882812 15.910156 187.5 15.910156 " fill-opacity="1" fill-rule="nonzero"/><path fill="#231815" d="M 224.09375 187.5 L 297.277344 260.6875 L 260.683594 297.277344 L 187.5 224.09375 L 114.3125 297.277344 L 77.722656 260.6875 L 150.90625 187.5 L 77.722656 114.316406 L 114.3125 77.722656 L 187.5 150.90625 L 260.683594 77.722656 L 297.277344 114.316406 L 224.09375 187.5 " fill-opacity="1" fill-rule="nonzero"/></svg>