<svg xmlns="http://www.w3.org/2000/svg" xmlns:xlink="http://www.w3.org/1999/xlink" width="500" zoomAndPan="magnify" viewBox="0 0 375 374.999991" height="500" preserveAspectRatio="xMidYMid meet" version="1.0"><defs><clipPath id="05bf734e1d"><path d="M 40 13 L 337.5 13 L 337.5 362 L 40 362 Z M 40 13 " clip-rule="nonzero"/></clipPath></defs><g clip-path="url(#05bf734e1d)"><path fill="#ffffff" d="M 79.996094 130.566406 C 75.542969 120.183594 63.484375 115.363281 53.097656 119.8125 C 42.675781 124.261719 37.882812 136.3125 42.335938 146.695312 C 47.46875 158.652344 50.902344 174.347656 50.902344 187.753906 C 50.902344 200.855469 47.59375 214.480469 42.335938 226.777344 C 37.882812 237.160156 42.675781 249.210938 53.097656 253.660156 C 63.484375 258.109375 75.542969 253.289062 79.996094 242.90625 C 87.015625 226.5625 91.902344 207.4375 91.902344 187.753906 C 91.902344 168.445312 87.171875 147.28125 79.996094 130.566406 Z M 125.757812 85.519531 C 135.871094 80.453125 148.175781 84.5625 153.246094 94.664062 C 167.191406 122.5625 173.839844 156.519531 173.839844 187.753906 C 173.839844 219.332031 167.066406 250.910156 153.523438 280.292969 C 148.761719 290.519531 136.613281 295.027344 126.347656 290.269531 C 116.050781 285.542969 111.566406 273.402344 116.296875 263.113281 C 127.335938 239.230469 132.871094 213.492188 132.871094 187.753906 C 132.871094 161.679688 127.210938 134.210938 116.574219 112.984375 C 111.535156 102.882812 115.617188 90.585938 125.757812 85.519531 Z M 227.394531 58.667969 C 222.785156 48.320312 210.664062 43.683594 200.339844 48.257812 C 190.011719 52.859375 185.339844 64.972656 189.949219 75.292969 C 205.316406 109.835938 214.808594 150 214.808594 187.753906 C 214.808594 225.355469 205.378906 263.484375 189.949219 298.179688 C 185.339844 308.53125 189.980469 320.613281 200.339844 325.214844 C 210.664062 329.789062 222.785156 325.152344 227.394531 314.804688 C 244.738281 275.8125 255.777344 232.03125 255.777344 187.753906 C 255.777344 143.636719 244.800781 97.816406 227.394531 58.667969 Z M 300.734375 25.054688 C 295.695312 14.949219 283.359375 10.839844 273.246094 15.90625 C 263.136719 20.976562 259.023438 33.273438 264.09375 43.375 C 285.121094 85.363281 296.746094 135.449219 296.746094 187.753906 C 296.746094 239.910156 285.183594 288.046875 263.941406 332.445312 C 259.054688 342.640625 263.382812 354.875 273.589844 359.757812 C 283.792969 364.640625 296.003906 360.3125 300.890625 350.117188 C 324.730469 300.375 337.746094 246.179688 337.746094 187.753906 C 337.746094 129.546875 324.792969 73.128906 300.734375 25.054688 " fill-opacity="1" fill-rule="nonzero"/></g></svg>