<svg xmlns="http://www.w3.org/2000/svg" xmlns:xlink="http://www.w3.org/1999/xlink" width="1280" zoomAndPan="magnify" viewBox="0 0 960 540.000001" height="720" preserveAspectRatio="xMidYMid meet" version="1.0"><defs><filter x="0%" y="0%" width="100%" height="100%" id="a4669fedd1"><feColorMatrix values="0 0 0 0 1 0 0 0 0 1 0 0 0 0 1 0 0 0 1 0" color-interpolation-filters="sRGB"/></filter><clipPath id="a35d8b767e"><path d="M 0.886719 0 L 959.113281 0 L 959.113281 539 L 0.886719 539 Z M 0.886719 0 " clip-rule="nonzero"/></clipPath><mask id="974c39bb67"><g filter="url(#a4669fedd1)"><rect x="-96" width="1152" fill="#000000" y="-54" height="648.000001" fill-opacity="0.498"/></g></mask><clipPath id="dd7e2c0d7c"><path d="M 108 209 L 138 209 L 138 269.5 L 108 269.5 Z M 108 209 " clip-rule="nonzero"/></clipPath><clipPath id="38bef4af6c"><rect x="0" width="290" y="0" height="280"/></clipPath><clipPath id="6d98e98727"><path d="M 0.886719 260 L 284 260 L 284 539 L 0.886719 539 Z M 0.886719 260 " clip-rule="nonzero"/></clipPath><mask id="0f6f9fb743"><g filter="url(#a4669fedd1)"><rect x="-96" width="1152" fill="#000000" y="-54" height="648.000001" fill-opacity="0.498"/></g></mask><clipPath id="387286bfaf"><path d="M 182 9.5 L 224 9.5 L 224 65 L 182 65 Z M 182 9.5 " clip-rule="nonzero"/></clipPath><clipPath id="c819c6616e"><rect x="0" width="284" y="0" height="279"/></clipPath><clipPath id="c5c8282ecc"><path d="M 823 0 L 959.113281 0 L 959.113281 280 L 823 280 Z M 823 0 " clip-rule="nonzero"/></clipPath><mask id="bab19b4a20"><g filter="url(#a4669fedd1)"><rect x="-96" width="1152" fill="#000000" y="-54" height="648.000001" fill-opacity="0.498"/></g></mask><clipPath id="e204e42d2e"><path d="M 105 12 L 136.113281 12 L 136.113281 43 L 105 43 Z M 105 12 " clip-rule="nonzero"/></clipPath><clipPath id="9d8fc16f86"><path d="M 88 155 L 136.113281 155 L 136.113281 170 L 88 170 Z M 88 155 " clip-rule="nonzero"/></clipPath><clipPath id="add9a426a4"><path d="M 108 209 L 136.113281 209 L 136.113281 269.5 L 108 269.5 Z M 108 209 " clip-rule="nonzero"/></clipPath><clipPath id="b6f2a812f4"><rect x="0" width="137" y="0" height="280"/></clipPath><mask id="e788a40b44"><g filter="url(#a4669fedd1)"><rect x="-96" width="1152" fill="#000000" y="-54" height="648.000001" fill-opacity="0.498"/></g></mask><clipPath id="c16fed6a3e"><path d="M 187 9.5 L 230 9.5 L 230 65 L 187 65 Z M 187 9.5 " clip-rule="nonzero"/></clipPath><clipPath id="3f8ab6bdcd"><rect x="0" width="289" y="0" height="279"/></clipPath><mask id="eb9d0c828e"><g filter="url(#a4669fedd1)"><rect x="-96" width="1152" fill="#000000" y="-54" height="648.000001" fill-opacity="0.5098"/></g></mask><clipPath id="0fbeea6e61"><path d="M 0.164062 0 L 58 0 L 58 57 L 0.164062 57 Z M 0.164062 0 " clip-rule="nonzero"/></clipPath><clipPath id="f4b536ab25"><path d="M 0.164062 0 L 146 0 L 146 145 L 0.164062 145 Z M 0.164062 0 " clip-rule="nonzero"/></clipPath><clipPath id="00d7329c70"><path d="M 0.164062 0 L 234 0 L 234 233 L 0.164062 233 Z M 0.164062 0 " clip-rule="nonzero"/></clipPath><clipPath id="087ebc1d54"><path d="M 36 36 L 269.664062 36 L 269.664062 269.5 L 36 269.5 Z M 36 36 " clip-rule="nonzero"/></clipPath><clipPath id="da8975c003"><path d="M 124 124 L 269.664062 124 L 269.664062 269.5 L 124 269.5 Z M 124 124 " clip-rule="nonzero"/></clipPath><clipPath id="ad2b695e2f"><path d="M 212 212 L 269.664062 212 L 269.664062 269.5 L 212 269.5 Z M 212 212 " clip-rule="nonzero"/></clipPath><clipPath id="db8bbe4b28"><rect x="0" width="270" y="0" height="270"/></clipPath><mask id="172117e148"><g filter="url(#a4669fedd1)"><rect x="-96" width="1152" fill="#000000" y="-54" height="648.000001" fill-opacity="0.5098"/></g></mask><clipPath id="fc310dd2e8"><path d="M 0.523438 0.5 L 58 0.5 L 58 58 L 0.523438 58 Z M 0.523438 0.5 " clip-rule="nonzero"/></clipPath><clipPath id="babd4354c6"><path d="M 0.523438 0.5 L 146 0.5 L 146 146 L 0.523438 146 Z M 0.523438 0.5 " clip-rule="nonzero"/></clipPath><clipPath id="8ae3063165"><path d="M 0.523438 0.5 L 234 0.5 L 234 234 L 0.523438 234 Z M 0.523438 0.5 " clip-rule="nonzero"/></clipPath><clipPath id="5bd0f10e28"><path d="M 37 37 L 270.027344 37 L 270.027344 270 L 37 270 Z M 37 37 " clip-rule="nonzero"/></clipPath><clipPath id="11ed3c7d99"><path d="M 125 125 L 270.027344 125 L 270.027344 270 L 125 270 Z M 125 125 " clip-rule="nonzero"/></clipPath><clipPath id="5359805829"><path d="M 213 213 L 270.027344 213 L 270.027344 270 L 213 270 Z M 213 213 " clip-rule="nonzero"/></clipPath><clipPath id="9576eb8545"><rect x="0" width="271" y="0" height="270"/></clipPath><mask id="9568b8bf6d"><g filter="url(#a4669fedd1)"><rect x="-96" width="1152" fill="#000000" y="-54" height="648.000001" fill-opacity="0.5098"/></g></mask><clipPath id="532dc3de43"><path d="M 0.207031 0.246094 L 58 0.246094 L 58 58 L 0.207031 58 Z M 0.207031 0.246094 " clip-rule="nonzero"/></clipPath><clipPath id="4b3d708091"><path d="M 0.207031 0.246094 L 146 0.246094 L 146 146 L 0.207031 146 Z M 0.207031 0.246094 " clip-rule="nonzero"/></clipPath><clipPath id="41dcd15818"><path d="M 0.207031 0.246094 L 234 0.246094 L 234 234 L 0.207031 234 Z M 0.207031 0.246094 " clip-rule="nonzero"/></clipPath><clipPath id="459010d5bd"><path d="M 36 36 L 269.707031 36 L 269.707031 269.746094 L 36 269.746094 Z M 36 36 " clip-rule="nonzero"/></clipPath><clipPath id="c6827599e0"><path d="M 124 124 L 269.707031 124 L 269.707031 269.746094 L 124 269.746094 Z M 124 124 " clip-rule="nonzero"/></clipPath><clipPath id="4159bb6a2c"><path d="M 212 212 L 269.707031 212 L 269.707031 269.746094 L 212 269.746094 Z M 212 212 " clip-rule="nonzero"/></clipPath><clipPath id="dc867cb1b9"><rect x="0" width="270" y="0" height="270"/></clipPath><clipPath id="e2ca58fe84"><path d="M 823 264 L 959.113281 264 L 959.113281 534 L 823 534 Z M 823 264 " clip-rule="nonzero"/></clipPath><mask id="5c65de6d06"><g filter="url(#a4669fedd1)"><rect x="-96" width="1152" fill="#000000" y="-54" height="648.000001" fill-opacity="0.5098"/></g></mask><clipPath id="8d9bd4051f"><path d="M 0.675781 0.261719 L 58 0.261719 L 58 58 L 0.675781 58 Z M 0.675781 0.261719 " clip-rule="nonzero"/></clipPath><clipPath id="653897aee9"><path d="M 0.675781 0.261719 L 136.113281 0.261719 L 136.113281 146 L 0.675781 146 Z M 0.675781 0.261719 " clip-rule="nonzero"/></clipPath><clipPath id="ac83be3d48"><path d="M 0.675781 0.261719 L 136.113281 0.261719 L 136.113281 234 L 0.675781 234 Z M 0.675781 0.261719 " clip-rule="nonzero"/></clipPath><clipPath id="50d7941223"><path d="M 37 36 L 136.113281 36 L 136.113281 269.761719 L 37 269.761719 Z M 37 36 " clip-rule="nonzero"/></clipPath><clipPath id="552e6f8447"><path d="M 125 124 L 136.113281 124 L 136.113281 269.761719 L 125 269.761719 Z M 125 124 " clip-rule="nonzero"/></clipPath><clipPath id="1f36ba4bb8"><rect x="0" width="137" y="0" height="270"/></clipPath></defs><g clip-path="url(#a35d8b767e)"><path fill="#ffffff" d="M 0.886719 0 L 959.113281 0 L 959.113281 546.488281 L 0.886719 546.488281 Z M 0.886719 0 " fill-opacity="1" fill-rule="nonzero"/><path fill="#ffffff" d="M 0.886719 0 L 959.113281 0 L 959.113281 539 L 0.886719 539 Z M 0.886719 0 " fill-opacity="1" fill-rule="nonzero"/><path fill="#7ec181" d="M 0.886719 0 L 959.113281 0 L 959.113281 539 L 0.886719 539 Z M 0.886719 0 " fill-opacity="1" fill-rule="nonzero"/></g><g mask="url(#974c39bb67)"><g transform="matrix(1, 0, 0, 1, 269, 0.000000000000017795)"><g clip-path="url(#38bef4af6c)"><path fill="#ffffff" d="M 8.027344 41.945312 L 55.882812 5.855469 L 61.902344 13.820312 L 14.050781 49.914062 Z M 8.027344 41.945312 " fill-opacity="1" fill-rule="nonzero"/><path fill="#ffffff" d="M 57.992188 58.179688 L 63.597656 49.914062 L 113.246094 83.503906 L 107.640625 91.765625 Z M 57.992188 58.179688 " fill-opacity="1" fill-rule="nonzero"/><path fill="#ffffff" d="M 105.019531 33.429688 L 161.371094 12.953125 L 164.789062 22.332031 L 108.4375 42.808594 Z M 105.019531 33.429688 " fill-opacity="1" fill-rule="nonzero"/><path fill="#ffffff" d="M 187.921875 5.554688 L 196.230469 0.0078125 L 229.558594 49.792969 L 221.253906 55.339844 Z M 187.921875 5.554688 " fill-opacity="1" fill-rule="nonzero"/><path fill="#ffffff" d="M 147.988281 116.355469 L 168.539062 60.089844 L 177.925781 63.511719 L 157.378906 119.773438 Z M 147.988281 116.355469 " fill-opacity="1" fill-rule="nonzero"/><path fill="#ffffff" d="M 217.898438 99.828125 L 222.898438 91.183594 L 274.828125 121.128906 L 269.832031 129.773438 Z M 217.898438 99.828125 " fill-opacity="1" fill-rule="nonzero"/><path fill="#ffffff" d="M 24.109375 135.910156 L 71.964844 99.820312 L 77.984375 107.785156 L 30.132812 143.875 Z M 24.109375 135.910156 " fill-opacity="1" fill-rule="nonzero"/><path fill="#ffffff" d="M 18.011719 177.949219 L 23.617188 169.6875 L 73.265625 203.273438 L 67.660156 211.539062 Z M 18.011719 177.949219 " fill-opacity="1" fill-rule="nonzero"/><path fill="#ffffff" d="M 87.980469 159.722656 L 147.800781 155.578125 L 148.492188 165.535156 L 88.671875 169.679688 Z M 87.980469 159.722656 " fill-opacity="1" fill-rule="nonzero"/><path fill="#ffffff" d="M 192.117188 140.039062 L 202.0625 139.066406 L 207.90625 198.667969 L 197.960938 199.640625 Z M 192.117188 140.039062 " fill-opacity="1" fill-rule="nonzero"/><path fill="#ffffff" d="M 227.890625 189.644531 L 279.820312 159.699219 L 284.820312 168.34375 L 232.890625 198.289062 Z M 227.890625 189.644531 " fill-opacity="1" fill-rule="nonzero"/><path fill="#ffffff" d="M 252.136719 65.898438 L 274.328125 10.261719 L 283.613281 13.953125 L 261.421875 69.589844 Z M 252.136719 65.898438 " fill-opacity="1" fill-rule="nonzero"/><path fill="#ffffff" d="M 227.898438 226.652344 L 234.964844 219.59375 L 277.367188 261.941406 L 270.300781 269 Z M 227.898438 226.652344 " fill-opacity="1" fill-rule="nonzero"/><g clip-path="url(#dd7e2c0d7c)"><path fill="#ffffff" d="M 108.015625 265.878906 L 128.558594 209.613281 L 137.949219 213.035156 L 117.402344 269.296875 Z M 108.015625 265.878906 " fill-opacity="1" fill-rule="nonzero"/></g><path fill="#ffffff" d="M 157.945312 241.953125 L 160.875 232.410156 L 218.203125 249.964844 L 215.277344 259.507812 Z M 157.945312 241.953125 " fill-opacity="1" fill-rule="nonzero"/><path fill="#ffffff" d="M 18.035156 253.230469 L 76.414062 239.554688 L 78.695312 249.269531 L 20.316406 262.949219 Z M 18.035156 253.230469 " fill-opacity="1" fill-rule="nonzero"/></g></g></g><g clip-path="url(#6d98e98727)"><g mask="url(#0f6f9fb743)"><g transform="matrix(1, 0, 0, 1, 0.000000000000000222, 260)"><g clip-path="url(#c819c6616e)"><path fill="#ffffff" d="M 2.457031 51.449219 L 50.3125 15.355469 L 56.335938 23.324219 L 8.480469 59.414062 Z M 2.457031 51.449219 " fill-opacity="1" fill-rule="nonzero"/><path fill="#ffffff" d="M 52.425781 67.679688 L 58.03125 59.417969 L 107.675781 93.003906 L 102.070312 101.269531 Z M 52.425781 67.679688 " fill-opacity="1" fill-rule="nonzero"/><path fill="#ffffff" d="M 99.453125 42.929688 L 155.800781 22.453125 L 159.21875 31.835938 L 102.867188 52.3125 Z M 99.453125 42.929688 " fill-opacity="1" fill-rule="nonzero"/><g clip-path="url(#387286bfaf)"><path fill="#ffffff" d="M 182.355469 15.054688 L 190.660156 9.507812 L 223.992188 59.292969 L 215.683594 64.84375 Z M 182.355469 15.054688 " fill-opacity="1" fill-rule="nonzero"/></g><path fill="#ffffff" d="M 142.417969 125.855469 L 162.96875 69.59375 L 172.355469 73.011719 L 151.808594 129.277344 Z M 142.417969 125.855469 " fill-opacity="1" fill-rule="nonzero"/><path fill="#ffffff" d="M 212.332031 109.328125 L 217.328125 100.6875 L 269.257812 130.628906 L 264.261719 139.273438 Z M 212.332031 109.328125 " fill-opacity="1" fill-rule="nonzero"/><path fill="#ffffff" d="M 18.539062 145.410156 L 66.394531 109.320312 L 72.417969 117.285156 L 24.5625 153.375 Z M 18.539062 145.410156 " fill-opacity="1" fill-rule="nonzero"/><path fill="#ffffff" d="M 12.445312 187.449219 L 18.050781 179.1875 L 67.695312 212.773438 L 62.089844 221.039062 Z M 12.445312 187.449219 " fill-opacity="1" fill-rule="nonzero"/><path fill="#ffffff" d="M 82.410156 169.222656 L 142.230469 165.078125 L 142.921875 175.035156 L 83.101562 179.183594 Z M 82.410156 169.222656 " fill-opacity="1" fill-rule="nonzero"/><path fill="#ffffff" d="M 186.546875 149.539062 L 196.492188 148.566406 L 202.339844 208.167969 L 192.390625 209.144531 Z M 186.546875 149.539062 " fill-opacity="1" fill-rule="nonzero"/><path fill="#ffffff" d="M 222.324219 199.144531 L 274.253906 169.203125 L 279.25 177.84375 L 227.320312 207.789062 Z M 222.324219 199.144531 " fill-opacity="1" fill-rule="nonzero"/><path fill="#ffffff" d="M 246.566406 75.398438 L 268.761719 19.761719 L 278.042969 23.457031 L 255.851562 79.09375 Z M 246.566406 75.398438 " fill-opacity="1" fill-rule="nonzero"/><path fill="#ffffff" d="M 222.332031 236.152344 L 229.398438 229.097656 L 271.800781 271.441406 L 264.730469 278.5 Z M 222.332031 236.152344 " fill-opacity="1" fill-rule="nonzero"/><path fill="#ffffff" d="M 102.445312 275.378906 L 122.988281 219.117188 L 132.378906 222.535156 L 111.835938 278.800781 Z M 102.445312 275.378906 " fill-opacity="1" fill-rule="nonzero"/><path fill="#ffffff" d="M 152.375 251.453125 L 155.304688 241.910156 L 212.636719 259.464844 L 209.707031 269.007812 Z M 152.375 251.453125 " fill-opacity="1" fill-rule="nonzero"/><path fill="#ffffff" d="M 12.464844 262.730469 L 70.84375 249.054688 L 73.125 258.773438 L 14.746094 272.449219 Z M 12.464844 262.730469 " fill-opacity="1" fill-rule="nonzero"/></g></g></g></g><g clip-path="url(#c5c8282ecc)"><g mask="url(#bab19b4a20)"><g transform="matrix(1, 0, 0, 1, 823, 0.000000000000017795)"><g clip-path="url(#b6f2a812f4)"><path fill="#ffffff" d="M 8.234375 41.945312 L 56.089844 5.855469 L 62.109375 13.820312 L 14.257812 49.914062 Z M 8.234375 41.945312 " fill-opacity="1" fill-rule="nonzero"/><path fill="#ffffff" d="M 58.199219 58.179688 L 63.804688 49.914062 L 113.453125 83.503906 L 107.847656 91.765625 Z M 58.199219 58.179688 " fill-opacity="1" fill-rule="nonzero"/><g clip-path="url(#e204e42d2e)"><path fill="#ffffff" d="M 105.226562 33.429688 L 161.578125 12.953125 L 164.996094 22.332031 L 108.644531 42.808594 Z M 105.226562 33.429688 " fill-opacity="1" fill-rule="nonzero"/></g><path fill="#ffffff" d="M 24.316406 135.910156 L 72.171875 99.820312 L 78.191406 107.785156 L 30.339844 143.875 Z M 24.316406 135.910156 " fill-opacity="1" fill-rule="nonzero"/><path fill="#ffffff" d="M 18.21875 177.949219 L 23.824219 169.6875 L 73.472656 203.273438 L 67.867188 211.539062 Z M 18.21875 177.949219 " fill-opacity="1" fill-rule="nonzero"/><g clip-path="url(#9d8fc16f86)"><path fill="#ffffff" d="M 88.1875 159.722656 L 148.007812 155.578125 L 148.699219 165.535156 L 88.878906 169.679688 Z M 88.1875 159.722656 " fill-opacity="1" fill-rule="nonzero"/></g><g clip-path="url(#add9a426a4)"><path fill="#ffffff" d="M 108.222656 265.878906 L 128.765625 209.613281 L 138.15625 213.035156 L 117.613281 269.296875 Z M 108.222656 265.878906 " fill-opacity="1" fill-rule="nonzero"/></g><path fill="#ffffff" d="M 18.242188 253.230469 L 76.621094 239.554688 L 78.902344 249.269531 L 20.523438 262.949219 Z M 18.242188 253.230469 " fill-opacity="1" fill-rule="nonzero"/></g></g></g></g><g mask="url(#e788a40b44)"><g transform="matrix(1, 0, 0, 1, 543, 260)"><g clip-path="url(#3f8ab6bdcd)"><path fill="#ffffff" d="M 7.847656 51.449219 L 55.703125 15.355469 L 61.722656 23.324219 L 13.871094 59.414062 Z M 7.847656 51.449219 " fill-opacity="1" fill-rule="nonzero"/><path fill="#ffffff" d="M 57.816406 67.679688 L 63.417969 59.417969 L 113.066406 93.003906 L 107.460938 101.269531 Z M 57.816406 67.679688 " fill-opacity="1" fill-rule="nonzero"/><path fill="#ffffff" d="M 104.84375 42.929688 L 161.191406 22.453125 L 164.609375 31.835938 L 108.257812 52.3125 Z M 104.84375 42.929688 " fill-opacity="1" fill-rule="nonzero"/><g clip-path="url(#c16fed6a3e)"><path fill="#ffffff" d="M 187.742188 15.054688 L 196.050781 9.507812 L 229.382812 59.292969 L 221.074219 64.84375 Z M 187.742188 15.054688 " fill-opacity="1" fill-rule="nonzero"/></g><path fill="#ffffff" d="M 147.808594 125.855469 L 168.359375 69.59375 L 177.746094 73.011719 L 157.199219 129.277344 Z M 147.808594 125.855469 " fill-opacity="1" fill-rule="nonzero"/><path fill="#ffffff" d="M 217.722656 109.328125 L 222.71875 100.6875 L 274.648438 130.628906 L 269.652344 139.273438 Z M 217.722656 109.328125 " fill-opacity="1" fill-rule="nonzero"/><path fill="#ffffff" d="M 23.929688 145.410156 L 71.785156 109.320312 L 77.808594 117.285156 L 29.953125 153.375 Z M 23.929688 145.410156 " fill-opacity="1" fill-rule="nonzero"/><path fill="#ffffff" d="M 17.835938 187.449219 L 23.4375 179.1875 L 73.085938 212.773438 L 67.480469 221.039062 Z M 17.835938 187.449219 " fill-opacity="1" fill-rule="nonzero"/><path fill="#ffffff" d="M 87.800781 169.222656 L 147.621094 165.078125 L 148.3125 175.035156 L 88.492188 179.183594 Z M 87.800781 169.222656 " fill-opacity="1" fill-rule="nonzero"/><path fill="#ffffff" d="M 191.9375 149.539062 L 201.882812 148.566406 L 207.730469 208.167969 L 197.78125 209.144531 Z M 191.9375 149.539062 " fill-opacity="1" fill-rule="nonzero"/><path fill="#ffffff" d="M 227.710938 199.144531 L 279.644531 169.203125 L 284.640625 177.84375 L 232.710938 207.789062 Z M 227.710938 199.144531 " fill-opacity="1" fill-rule="nonzero"/><path fill="#ffffff" d="M 251.957031 75.398438 L 274.148438 19.761719 L 283.433594 23.457031 L 261.242188 79.09375 Z M 251.957031 75.398438 " fill-opacity="1" fill-rule="nonzero"/><path fill="#ffffff" d="M 227.71875 236.152344 L 234.789062 229.097656 L 277.1875 271.441406 L 270.121094 278.5 Z M 227.71875 236.152344 " fill-opacity="1" fill-rule="nonzero"/><path fill="#ffffff" d="M 107.835938 275.378906 L 128.378906 219.117188 L 137.769531 222.535156 L 117.226562 278.800781 Z M 107.835938 275.378906 " fill-opacity="1" fill-rule="nonzero"/><path fill="#ffffff" d="M 157.765625 251.453125 L 160.695312 241.910156 L 218.027344 259.464844 L 215.097656 269.007812 Z M 157.765625 251.453125 " fill-opacity="1" fill-rule="nonzero"/><path fill="#ffffff" d="M 17.855469 262.730469 L 76.234375 249.054688 L 78.515625 258.773438 L 20.136719 272.449219 Z M 17.855469 262.730469 " fill-opacity="1" fill-rule="nonzero"/></g></g></g><g mask="url(#eb9d0c828e)"><g transform="matrix(1, 0, 0, 1, 560, 0.000000000000017795)"><g clip-path="url(#db8bbe4b28)"><g clip-path="url(#0fbeea6e61)"><path fill="#ffffff" d="M 42.453125 0 L 0.164062 42.289062 L 0.164062 56.949219 L 57.109375 0 Z M 42.453125 0 " fill-opacity="1" fill-rule="nonzero"/></g><g clip-path="url(#f4b536ab25)"><path fill="#ffffff" d="M 130.40625 0 L 0.164062 130.242188 L 0.164062 144.898438 L 145.0625 0 Z M 130.40625 0 " fill-opacity="1" fill-rule="nonzero"/></g><g clip-path="url(#00d7329c70)"><path fill="#ffffff" d="M 218.355469 0 L 0.164062 218.191406 L 0.164062 232.847656 L 233.011719 0 Z M 218.355469 0 " fill-opacity="1" fill-rule="nonzero"/></g><g clip-path="url(#087ebc1d54)"><path fill="#ffffff" d="M 269.664062 51.308594 L 269.664062 36.652344 L 36.816406 269.5 L 51.472656 269.5 Z M 269.664062 51.308594 " fill-opacity="1" fill-rule="nonzero"/></g><g clip-path="url(#da8975c003)"><path fill="#ffffff" d="M 139.421875 269.5 L 269.664062 139.257812 L 269.664062 124.601562 L 124.765625 269.5 Z M 139.421875 269.5 " fill-opacity="1" fill-rule="nonzero"/></g><g clip-path="url(#ad2b695e2f)"><path fill="#ffffff" d="M 227.371094 269.5 L 269.664062 227.210938 L 269.664062 212.554688 L 212.714844 269.5 Z M 227.371094 269.5 " fill-opacity="1" fill-rule="nonzero"/></g></g></g></g><g mask="url(#172117e148)"><g transform="matrix(1, 0, 0, 1, 280, 269)"><g clip-path="url(#9576eb8545)"><g clip-path="url(#fc310dd2e8)"><path fill="#ffffff" d="M 42.816406 0.5 L 0.523438 42.792969 L 0.523438 57.449219 L 57.472656 0.5 Z M 42.816406 0.5 " fill-opacity="1" fill-rule="nonzero"/></g><g clip-path="url(#babd4354c6)"><path fill="#ffffff" d="M 130.765625 0.5 L 0.523438 130.742188 L 0.523438 145.398438 L 145.421875 0.5 Z M 130.765625 0.5 " fill-opacity="1" fill-rule="nonzero"/></g><g clip-path="url(#8ae3063165)"><path fill="#ffffff" d="M 218.71875 0.5 L 0.523438 218.691406 L 0.523438 233.351562 L 233.375 0.5 Z M 218.71875 0.5 " fill-opacity="1" fill-rule="nonzero"/></g><g clip-path="url(#5bd0f10e28)"><path fill="#ffffff" d="M 270.027344 51.808594 L 270.027344 37.152344 L 37.175781 270 L 51.832031 270 Z M 270.027344 51.808594 " fill-opacity="1" fill-rule="nonzero"/></g><g clip-path="url(#11ed3c7d99)"><path fill="#ffffff" d="M 139.785156 270 L 270.027344 139.761719 L 270.027344 125.105469 L 125.128906 270 Z M 139.785156 270 " fill-opacity="1" fill-rule="nonzero"/></g><g clip-path="url(#5359805829)"><path fill="#ffffff" d="M 227.734375 270 L 270.027344 227.710938 L 270.027344 213.054688 L 213.078125 270 Z M 227.734375 270 " fill-opacity="1" fill-rule="nonzero"/></g></g></g></g><g mask="url(#9568b8bf6d)"><g transform="matrix(1, 0, 0, 1, 5, 2)"><g clip-path="url(#dc867cb1b9)"><g clip-path="url(#532dc3de43)"><path fill="#ffffff" d="M 42.496094 0.246094 L 0.207031 42.535156 L 0.207031 57.195312 L 57.15625 0.246094 Z M 42.496094 0.246094 " fill-opacity="1" fill-rule="nonzero"/></g><g clip-path="url(#4b3d708091)"><path fill="#ffffff" d="M 130.449219 0.246094 L 0.207031 130.488281 L 0.207031 145.144531 L 145.105469 0.246094 Z M 130.449219 0.246094 " fill-opacity="1" fill-rule="nonzero"/></g><g clip-path="url(#41dcd15818)"><path fill="#ffffff" d="M 218.398438 0.246094 L 0.207031 218.4375 L 0.207031 233.09375 L 233.054688 0.246094 Z M 218.398438 0.246094 " fill-opacity="1" fill-rule="nonzero"/></g><g clip-path="url(#459010d5bd)"><path fill="#ffffff" d="M 269.707031 51.554688 L 269.707031 36.898438 L 36.859375 269.746094 L 51.515625 269.746094 Z M 269.707031 51.554688 " fill-opacity="1" fill-rule="nonzero"/></g><g clip-path="url(#c6827599e0)"><path fill="#ffffff" d="M 139.464844 269.746094 L 269.707031 139.503906 L 269.707031 124.847656 L 124.808594 269.746094 Z M 139.464844 269.746094 " fill-opacity="1" fill-rule="nonzero"/></g><g clip-path="url(#4159bb6a2c)"><path fill="#ffffff" d="M 227.417969 269.746094 L 269.707031 227.457031 L 269.707031 212.800781 L 212.761719 269.746094 Z M 227.417969 269.746094 " fill-opacity="1" fill-rule="nonzero"/></g></g></g></g><g clip-path="url(#e2ca58fe84)"><g mask="url(#5c65de6d06)"><g transform="matrix(1, 0, 0, 1, 823, 264)"><g clip-path="url(#1f36ba4bb8)"><g clip-path="url(#8d9bd4051f)"><path fill="#ffffff" d="M 42.964844 0.261719 L 0.675781 42.550781 L 0.675781 57.207031 L 57.621094 0.261719 Z M 42.964844 0.261719 " fill-opacity="1" fill-rule="nonzero"/></g><g clip-path="url(#653897aee9)"><path fill="#ffffff" d="M 130.917969 0.261719 L 0.675781 130.503906 L 0.675781 145.160156 L 145.574219 0.261719 Z M 130.917969 0.261719 " fill-opacity="1" fill-rule="nonzero"/></g><g clip-path="url(#ac83be3d48)"><path fill="#ffffff" d="M 218.867188 0.261719 L 0.675781 218.453125 L 0.675781 233.109375 L 233.523438 0.261719 Z M 218.867188 0.261719 " fill-opacity="1" fill-rule="nonzero"/></g><g clip-path="url(#50d7941223)"><path fill="#ffffff" d="M 270.175781 51.570312 L 270.175781 36.914062 L 37.328125 269.761719 L 51.984375 269.761719 Z M 270.175781 51.570312 " fill-opacity="1" fill-rule="nonzero"/></g><g clip-path="url(#552e6f8447)"><path fill="#ffffff" d="M 139.933594 269.761719 L 270.175781 139.519531 L 270.175781 124.863281 L 125.277344 269.761719 Z M 139.933594 269.761719 " fill-opacity="1" fill-rule="nonzero"/></g></g></g></g></g></svg>