<svg xmlns="http://www.w3.org/2000/svg" xmlns:xlink="http://www.w3.org/1999/xlink" width="500" zoomAndPan="magnify" viewBox="0 0 375 374.999991" height="500" preserveAspectRatio="xMidYMid meet" version="1.0"><defs><g/><clipPath id="588bb0ce2d"><path d="M 169.695312 142 L 181 142 L 181 161 L 169.695312 161 Z M 169.695312 142 " clip-rule="nonzero"/></clipPath><clipPath id="5cd4fefdf8"><path d="M 194 142 L 204.945312 142 L 204.945312 161 L 194 161 Z M 194 142 " clip-rule="nonzero"/></clipPath><clipPath id="6f762e1c26"><path d="M 182 139 L 193 139 L 193 163.574219 L 182 163.574219 Z M 182 139 " clip-rule="nonzero"/></clipPath></defs><g clip-path="url(#588bb0ce2d)"><path fill="#108ad8" d="M 178.628906 160.085938 C 178.109375 160.085938 177.761719 159.914062 177.414062 159.566406 L 170.460938 152.59375 C 169.765625 151.894531 169.765625 150.851562 170.460938 150.152344 L 177.414062 143.179688 C 178.109375 142.484375 179.152344 142.484375 179.847656 143.179688 C 180.542969 143.878906 180.542969 144.925781 179.847656 145.621094 L 174.113281 151.371094 L 179.847656 157.125 C 180.542969 157.820312 180.542969 158.867188 179.847656 159.566406 C 179.5 159.914062 179.152344 160.085938 178.628906 160.085938 Z M 178.628906 160.085938 " fill-opacity="1" fill-rule="nonzero"/></g><g clip-path="url(#5cd4fefdf8)"><path fill="#108ad8" d="M 196.011719 160.085938 C 195.488281 160.085938 195.140625 159.914062 194.792969 159.566406 C 194.097656 158.867188 194.097656 157.820312 194.792969 157.125 L 200.527344 151.371094 L 194.792969 145.621094 C 194.097656 144.925781 194.097656 143.878906 194.792969 143.179688 C 195.488281 142.484375 196.53125 142.484375 197.226562 143.179688 L 204.179688 150.152344 C 204.875 150.851562 204.875 151.894531 204.179688 152.59375 L 197.226562 159.566406 C 196.878906 159.914062 196.53125 160.085938 196.011719 160.085938 Z M 196.011719 160.085938 " fill-opacity="1" fill-rule="nonzero"/></g><g clip-path="url(#6f762e1c26)"><path fill="#108ad8" d="M 183.84375 163.574219 C 183.671875 163.574219 183.496094 163.574219 183.324219 163.398438 C 182.453125 163.050781 181.933594 162.179688 182.28125 161.132812 L 189.230469 140.21875 C 189.578125 139.347656 190.449219 138.824219 191.492188 139.171875 C 192.359375 139.519531 192.882812 140.390625 192.535156 141.4375 L 185.582031 162.351562 C 185.234375 163.050781 184.539062 163.574219 183.84375 163.574219 Z M 183.84375 163.574219 " fill-opacity="1" fill-rule="nonzero"/></g><g fill="#000000" fill-opacity="1"><g transform="translate(69.113275, 202.499987)"><g><path d="M 15 0.71875 C 11.132812 0.71875 8.15625 -0.191406 6.0625 -2.015625 C 3.96875 -3.847656 2.929688 -6.585938 2.953125 -10.234375 L 9.484375 -10.234375 C 9.453125 -8.710938 9.898438 -7.550781 10.828125 -6.75 C 11.765625 -5.957031 13.078125 -5.5625 14.765625 -5.5625 C 16.148438 -5.5625 17.238281 -5.785156 18.03125 -6.234375 C 18.832031 -6.691406 19.234375 -7.382812 19.234375 -8.3125 C 19.234375 -9.09375 18.828125 -9.65625 18.015625 -10 C 17.203125 -10.34375 16.394531 -10.585938 15.59375 -10.734375 C 14.800781 -10.878906 14.3125 -10.96875 14.125 -11 C 12.070312 -11.394531 10.296875 -11.878906 8.796875 -12.453125 C 7.304688 -13.023438 6.050781 -13.898438 5.03125 -15.078125 C 4.019531 -16.253906 3.515625 -17.800781 3.515625 -19.71875 C 3.515625 -21.632812 4.019531 -23.265625 5.03125 -24.609375 C 6.050781 -25.960938 7.40625 -26.972656 9.09375 -27.640625 C 10.789062 -28.304688 12.640625 -28.640625 14.640625 -28.640625 C 17.066406 -28.640625 19.164062 -28.1875 20.9375 -27.28125 C 22.707031 -26.375 24.101562 -25 25.125 -23.15625 C 25.625 -22.28125 25.925781 -21.4375 26.03125 -20.625 C 26.144531 -19.8125 26.203125 -19.015625 26.203125 -18.234375 L 19.6875 -18.234375 C 19.6875 -19.679688 19.296875 -20.742188 18.515625 -21.421875 C 17.742188 -22.097656 16.546875 -22.4375 14.921875 -22.4375 C 13.609375 -22.4375 12.59375 -22.207031 11.875 -21.75 C 11.15625 -21.300781 10.796875 -20.691406 10.796875 -19.921875 C 10.796875 -19.066406 11.273438 -18.4375 12.234375 -18.03125 C 13.203125 -17.632812 14.414062 -17.273438 15.875 -16.953125 C 18.28125 -16.472656 20.15625 -16.015625 21.5 -15.578125 C 22.84375 -15.140625 24.007812 -14.359375 25 -13.234375 C 25.988281 -12.117188 26.484375 -10.546875 26.484375 -8.515625 C 26.484375 -6.597656 25.945312 -4.945312 24.875 -3.5625 C 23.8125 -2.175781 22.40625 -1.113281 20.65625 -0.375 C 18.914062 0.351562 17.03125 0.71875 15 0.71875 Z M 15 0.71875 "/></g></g></g><g fill="#000000" fill-opacity="1"><g transform="translate(98.710338, 202.499987)"><g><path d="M 3.953125 -0.046875 L 3.953125 -27.875 L 5.515625 -27.875 L 24.953125 -8.953125 L 24.953125 -27.875 L 26.4375 -27.875 L 26.4375 -0.046875 Z M 3.953125 -0.046875 "/></g></g></g><g fill="#000000" fill-opacity="1"><g transform="translate(128.307401, 202.499987)"><g><path d="M 5.796875 -20.796875 L 5.796875 -27.84375 L 23.796875 -27.84375 L 23.796875 -20.796875 L 15.515625 -20.796875 L 15.515625 -7.046875 L 23.796875 -7.046875 L 23.796875 0 L 5.796875 0 L 5.796875 -7.046875 L 14.078125 -7.046875 L 14.078125 -20.796875 Z M 5.796875 -20.796875 "/></g></g></g><g fill="#000000" fill-opacity="1"><g transform="translate(157.904464, 202.499987)"><g><path d="M 5.5625 0 L 5.5625 -27.84375 L 17.203125 -27.84375 C 19.148438 -27.84375 20.828125 -27.484375 22.234375 -26.765625 C 23.867188 -25.929688 25.164062 -24.75 26.125 -23.21875 C 27.082031 -21.6875 27.5625 -20 27.5625 -18.15625 C 27.5625 -16.320312 27.085938 -14.628906 26.140625 -13.078125 C 25.191406 -11.535156 23.90625 -10.347656 22.28125 -9.515625 C 20.894531 -8.796875 19.203125 -8.4375 17.203125 -8.4375 L 12.84375 -8.4375 L 12.84375 0 Z M 5.5625 0 "/></g></g></g><g fill="#000000" fill-opacity="1"><g transform="translate(187.501526, 202.499987)"><g><path d="M 5.5625 0 L 5.5625 -27.84375 L 17.203125 -27.84375 C 19.148438 -27.84375 20.828125 -27.484375 22.234375 -26.765625 C 23.867188 -25.929688 25.164062 -24.75 26.125 -23.21875 C 27.082031 -21.6875 27.5625 -20 27.5625 -18.15625 C 27.5625 -16.320312 27.085938 -14.628906 26.140625 -13.078125 C 25.191406 -11.535156 23.90625 -10.347656 22.28125 -9.515625 C 20.894531 -8.796875 19.203125 -8.4375 17.203125 -8.4375 L 12.84375 -8.4375 L 12.84375 0 Z M 5.5625 0 "/></g></g></g><g fill="#000000" fill-opacity="1"><g transform="translate(217.098589, 202.499987)"><g><path d="M 4.796875 -27.84375 L 25.078125 -27.84375 L 25.078125 -20.796875 L 12.078125 -20.796875 L 12.078125 -17.28125 L 22.875 -17.28125 L 22.875 -10.59375 L 12.078125 -10.59375 L 12.078125 -7.046875 L 25.078125 -7.046875 L 25.078125 0 L 4.796875 0 Z M 4.796875 -27.84375 "/></g></g></g><g fill="#000000" fill-opacity="1"><g transform="translate(246.695652, 202.499987)"><g><path d="M 14.078125 0 L 14.078125 -20.796875 L 3.5625 -20.796875 L 3.5625 -27.84375 L 26.046875 -27.84375 L 26.046875 -20.796875 L 15.515625 -20.796875 L 15.515625 0 Z M 14.078125 0 "/></g></g></g><g fill="#000000" fill-opacity="1"><g transform="translate(276.292704, 202.499987)"><g><path d="M 15 0.71875 C 11.132812 0.71875 8.15625 -0.191406 6.0625 -2.015625 C 3.96875 -3.847656 2.929688 -6.585938 2.953125 -10.234375 L 9.484375 -10.234375 C 9.453125 -8.710938 9.898438 -7.550781 10.828125 -6.75 C 11.765625 -5.957031 13.078125 -5.5625 14.765625 -5.5625 C 16.148438 -5.5625 17.238281 -5.785156 18.03125 -6.234375 C 18.832031 -6.691406 19.234375 -7.382812 19.234375 -8.3125 C 19.234375 -9.09375 18.828125 -9.65625 18.015625 -10 C 17.203125 -10.34375 16.394531 -10.585938 15.59375 -10.734375 C 14.800781 -10.878906 14.3125 -10.96875 14.125 -11 C 12.070312 -11.394531 10.296875 -11.878906 8.796875 -12.453125 C 7.304688 -13.023438 6.050781 -13.898438 5.03125 -15.078125 C 4.019531 -16.253906 3.515625 -17.800781 3.515625 -19.71875 C 3.515625 -21.632812 4.019531 -23.265625 5.03125 -24.609375 C 6.050781 -25.960938 7.40625 -26.972656 9.09375 -27.640625 C 10.789062 -28.304688 12.640625 -28.640625 14.640625 -28.640625 C 17.066406 -28.640625 19.164062 -28.1875 20.9375 -27.28125 C 22.707031 -26.375 24.101562 -25 25.125 -23.15625 C 25.625 -22.28125 25.925781 -21.4375 26.03125 -20.625 C 26.144531 -19.8125 26.203125 -19.015625 26.203125 -18.234375 L 19.6875 -18.234375 C 19.6875 -19.679688 19.296875 -20.742188 18.515625 -21.421875 C 17.742188 -22.097656 16.546875 -22.4375 14.921875 -22.4375 C 13.609375 -22.4375 12.59375 -22.207031 11.875 -21.75 C 11.15625 -21.300781 10.796875 -20.691406 10.796875 -19.921875 C 10.796875 -19.066406 11.273438 -18.4375 12.234375 -18.03125 C 13.203125 -17.632812 14.414062 -17.273438 15.875 -16.953125 C 18.28125 -16.472656 20.15625 -16.015625 21.5 -15.578125 C 22.84375 -15.140625 24.007812 -14.359375 25 -13.234375 C 25.988281 -12.117188 26.484375 -10.546875 26.484375 -8.515625 C 26.484375 -6.597656 25.945312 -4.945312 24.875 -3.5625 C 23.8125 -2.175781 22.40625 -1.113281 20.65625 -0.375 C 18.914062 0.351562 17.03125 0.71875 15 0.71875 Z M 15 0.71875 "/></g></g></g><g fill="#108ad8" fill-opacity="1"><g transform="translate(157.761777, 159.12352)"><g><path d="M 1.671875 -9.28125 C 2.398438 -9.300781 2.921875 -9.429688 3.234375 -9.671875 C 3.554688 -9.921875 3.71875 -10.296875 3.71875 -10.796875 C 3.71875 -11.148438 3.644531 -11.851562 3.5 -12.90625 C 3.425781 -13.363281 3.359375 -13.835938 3.296875 -14.328125 C 3.242188 -14.816406 3.21875 -15.253906 3.21875 -15.640625 C 3.21875 -16.992188 3.628906 -18.039062 4.453125 -18.78125 C 5.285156 -19.53125 6.40625 -19.90625 7.8125 -19.90625 L 9.4375 -19.90625 L 9.4375 -16.40625 L 8.640625 -16.40625 C 8.171875 -16.40625 7.832031 -16.300781 7.625 -16.09375 C 7.425781 -15.894531 7.328125 -15.59375 7.328125 -15.1875 C 7.328125 -14.90625 7.382812 -14.25 7.5 -13.21875 C 7.632812 -11.894531 7.703125 -11.035156 7.703125 -10.640625 C 7.703125 -9.804688 7.503906 -9.117188 7.109375 -8.578125 C 6.722656 -8.035156 6.132812 -7.691406 5.34375 -7.546875 L 5.34375 -7.5 C 6.132812 -7.351562 6.722656 -7.007812 7.109375 -6.46875 C 7.503906 -5.925781 7.703125 -5.238281 7.703125 -4.40625 C 7.703125 -4.007812 7.632812 -3.148438 7.5 -1.828125 C 7.382812 -0.796875 7.328125 -0.132812 7.328125 0.15625 C 7.328125 0.550781 7.425781 0.847656 7.625 1.046875 C 7.832031 1.253906 8.171875 1.359375 8.640625 1.359375 L 9.4375 1.359375 L 9.4375 4.859375 L 7.8125 4.859375 C 6.40625 4.859375 5.285156 4.484375 4.453125 3.734375 C 3.628906 2.992188 3.21875 1.945312 3.21875 0.59375 C 3.21875 0.207031 3.242188 -0.226562 3.296875 -0.71875 C 3.359375 -1.207031 3.425781 -1.679688 3.5 -2.140625 C 3.644531 -3.191406 3.71875 -3.882812 3.71875 -4.21875 C 3.71875 -5.21875 3.035156 -5.738281 1.671875 -5.78125 Z M 1.671875 -9.28125 "/></g></g></g><g fill="#108ad8" fill-opacity="1"><g transform="translate(206.054609, 159.12352)"><g><path d="M 9.15625 -5.78125 C 7.789062 -5.738281 7.109375 -5.21875 7.109375 -4.21875 C 7.109375 -3.882812 7.179688 -3.191406 7.328125 -2.140625 C 7.398438 -1.679688 7.460938 -1.207031 7.515625 -0.71875 C 7.578125 -0.226562 7.609375 0.207031 7.609375 0.59375 C 7.609375 1.945312 7.191406 2.992188 6.359375 3.734375 C 5.535156 4.484375 4.421875 4.859375 3.015625 4.859375 L 1.390625 4.859375 L 1.390625 1.359375 L 2.171875 1.359375 C 2.640625 1.359375 2.976562 1.253906 3.1875 1.046875 C 3.394531 0.847656 3.5 0.550781 3.5 0.15625 C 3.5 -0.132812 3.441406 -0.796875 3.328125 -1.828125 C 3.191406 -3.148438 3.125 -4.007812 3.125 -4.40625 C 3.125 -5.238281 3.316406 -5.925781 3.703125 -6.46875 C 4.097656 -7.007812 4.691406 -7.351562 5.484375 -7.5 L 5.484375 -7.546875 C 4.691406 -7.691406 4.097656 -8.035156 3.703125 -8.578125 C 3.316406 -9.117188 3.125 -9.804688 3.125 -10.640625 C 3.125 -11.035156 3.191406 -11.894531 3.328125 -13.21875 C 3.441406 -14.25 3.5 -14.90625 3.5 -15.1875 C 3.5 -15.59375 3.394531 -15.894531 3.1875 -16.09375 C 2.976562 -16.300781 2.640625 -16.40625 2.171875 -16.40625 L 1.390625 -16.40625 L 1.390625 -19.90625 L 3.015625 -19.90625 C 4.421875 -19.90625 5.535156 -19.53125 6.359375 -18.78125 C 7.191406 -18.039062 7.609375 -16.992188 7.609375 -15.640625 C 7.609375 -15.253906 7.578125 -14.816406 7.515625 -14.328125 C 7.460938 -13.835938 7.398438 -13.363281 7.328125 -12.90625 C 7.179688 -11.851562 7.109375 -11.148438 7.109375 -10.796875 C 7.109375 -10.296875 7.265625 -9.921875 7.578125 -9.671875 C 7.890625 -9.429688 8.414062 -9.300781 9.15625 -9.28125 Z M 9.15625 -5.78125 "/></g></g></g></svg>