<svg xmlns="http://www.w3.org/2000/svg" xmlns:xlink="http://www.w3.org/1999/xlink" width="500" zoomAndPan="magnify" viewBox="0 0 375 374.999991" height="500" preserveAspectRatio="xMidYMid meet" version="1.0"><defs><g/><clipPath id="608657613f"><path d="M 155 105 L 223 105 L 223 262.183594 L 155 262.183594 Z M 155 105 " clip-rule="nonzero"/></clipPath></defs><path fill="#108ad8" d="M 132.925781 239.894531 C 129.589844 239.894531 127.363281 238.777344 125.136719 236.550781 L 80.625 191.972656 C 76.171875 187.515625 76.171875 180.828125 80.625 176.371094 L 125.136719 131.792969 C 129.589844 127.335938 136.265625 127.335938 140.714844 131.792969 C 145.167969 136.25 145.167969 142.9375 140.714844 147.394531 L 103.992188 184.171875 L 140.714844 220.949219 C 145.167969 225.40625 145.167969 232.09375 140.714844 236.550781 C 138.492188 238.777344 136.265625 239.894531 132.925781 239.894531 Z M 132.925781 239.894531 " fill-opacity="1" fill-rule="nonzero"/><path fill="#108ad8" d="M 244.210938 239.894531 C 240.871094 239.894531 238.648438 238.777344 236.421875 236.550781 C 231.96875 232.09375 231.96875 225.40625 236.421875 220.949219 L 273.144531 184.171875 L 236.421875 147.394531 C 231.96875 142.9375 231.96875 136.25 236.421875 131.792969 C 240.871094 127.335938 247.550781 127.335938 252 131.792969 L 296.515625 176.371094 C 300.964844 180.828125 300.964844 187.515625 296.515625 191.972656 L 252 236.550781 C 249.773438 238.777344 247.550781 239.894531 244.210938 239.894531 Z M 244.210938 239.894531 " fill-opacity="1" fill-rule="nonzero"/><g clip-path="url(#608657613f)"><path fill="#108ad8" d="M 166.3125 262.183594 C 165.199219 262.183594 164.085938 262.183594 162.972656 261.066406 C 157.410156 258.839844 154.070312 253.265625 156.296875 246.578125 L 200.808594 112.847656 C 203.035156 107.273438 208.601562 103.933594 215.277344 106.160156 C 220.839844 108.390625 224.179688 113.960938 221.953125 120.648438 L 177.441406 254.378906 C 175.214844 258.839844 170.761719 262.183594 166.3125 262.183594 Z M 166.3125 262.183594 " fill-opacity="1" fill-rule="nonzero"/></g><g fill="#108ad8" fill-opacity="1"><g transform="translate(0.0000045, 232.693358)"><g><path d="M 10.609375 -58.875 C 15.253906 -58.96875 18.578125 -59.804688 20.578125 -61.390625 C 22.578125 -62.972656 23.578125 -65.347656 23.578125 -68.515625 C 23.578125 -70.742188 23.113281 -75.207031 22.1875 -81.90625 C 21.71875 -84.789062 21.296875 -87.789062 20.921875 -90.90625 C 20.554688 -94.019531 20.375 -96.785156 20.375 -99.203125 C 20.375 -107.765625 23 -114.414062 28.25 -119.15625 C 33.507812 -123.90625 40.601562 -126.28125 49.53125 -126.28125 L 59.859375 -126.28125 L 59.859375 -104.09375 L 54.828125 -104.09375 C 51.859375 -104.09375 49.722656 -103.441406 48.421875 -102.140625 C 47.117188 -100.835938 46.46875 -98.882812 46.46875 -96.28125 C 46.46875 -94.507812 46.835938 -90.367188 47.578125 -83.859375 C 48.410156 -75.484375 48.828125 -70.039062 48.828125 -67.53125 C 48.828125 -62.226562 47.59375 -57.851562 45.125 -54.40625 C 42.664062 -50.96875 38.925781 -48.785156 33.90625 -47.859375 L 33.90625 -47.578125 C 38.925781 -46.648438 42.664062 -44.460938 45.125 -41.015625 C 47.59375 -37.578125 48.828125 -33.207031 48.828125 -27.90625 C 48.828125 -25.394531 48.410156 -19.953125 47.578125 -11.578125 C 46.835938 -5.066406 46.46875 -0.878906 46.46875 0.984375 C 46.46875 3.492188 47.117188 5.398438 48.421875 6.703125 C 49.722656 8.003906 51.859375 8.65625 54.828125 8.65625 L 59.859375 8.65625 L 59.859375 30.84375 L 49.53125 30.84375 C 40.601562 30.84375 33.507812 28.46875 28.25 23.71875 C 23 18.976562 20.375 12.328125 20.375 3.765625 C 20.375 1.347656 20.554688 -1.414062 20.921875 -4.53125 C 21.296875 -7.644531 21.71875 -10.644531 22.1875 -13.53125 C 23.113281 -20.226562 23.578125 -24.648438 23.578125 -26.796875 C 23.578125 -33.117188 19.253906 -36.421875 10.609375 -36.703125 Z M 10.609375 -58.875 "/></g></g></g><g fill="#108ad8" fill-opacity="1"><g transform="translate(306.317972, 232.693358)"><g><path d="M 58.046875 -36.703125 C 49.390625 -36.421875 45.0625 -33.117188 45.0625 -26.796875 C 45.0625 -24.648438 45.53125 -20.226562 46.46875 -13.53125 C 46.925781 -10.644531 47.34375 -7.644531 47.71875 -4.53125 C 48.09375 -1.414062 48.28125 1.347656 48.28125 3.765625 C 48.28125 12.328125 45.648438 18.976562 40.390625 23.71875 C 35.140625 28.46875 28.046875 30.84375 19.109375 30.84375 L 8.796875 30.84375 L 8.796875 8.65625 L 13.8125 8.65625 C 16.789062 8.65625 18.929688 8.003906 20.234375 6.703125 C 21.535156 5.398438 22.1875 3.492188 22.1875 0.984375 C 22.1875 -0.878906 21.8125 -5.066406 21.0625 -11.578125 C 20.226562 -19.953125 19.8125 -25.394531 19.8125 -27.90625 C 19.8125 -33.207031 21.039062 -37.578125 23.5 -41.015625 C 25.96875 -44.460938 29.71875 -46.648438 34.75 -47.578125 L 34.75 -47.859375 C 29.71875 -48.785156 25.96875 -50.96875 23.5 -54.40625 C 21.039062 -57.851562 19.8125 -62.226562 19.8125 -67.53125 C 19.8125 -70.039062 20.226562 -75.484375 21.0625 -83.859375 C 21.8125 -90.367188 22.1875 -94.507812 22.1875 -96.28125 C 22.1875 -98.882812 21.535156 -100.835938 20.234375 -102.140625 C 18.929688 -103.441406 16.789062 -104.09375 13.8125 -104.09375 L 8.796875 -104.09375 L 8.796875 -126.28125 L 19.109375 -126.28125 C 28.046875 -126.28125 35.140625 -123.90625 40.390625 -119.15625 C 45.648438 -114.414062 48.28125 -107.765625 48.28125 -99.203125 C 48.28125 -96.785156 48.09375 -94.019531 47.71875 -90.90625 C 47.34375 -87.789062 46.925781 -84.789062 46.46875 -81.90625 C 45.53125 -75.207031 45.0625 -70.742188 45.0625 -68.515625 C 45.0625 -65.347656 46.0625 -62.972656 48.0625 -61.390625 C 50.0625 -59.804688 53.390625 -58.96875 58.046875 -58.875 Z M 58.046875 -36.703125 "/></g></g></g></svg>