<svg xmlns="http://www.w3.org/2000/svg" xmlns:xlink="http://www.w3.org/1999/xlink" width="500" zoomAndPan="magnify" viewBox="0 0 375 374.999991" height="500" preserveAspectRatio="xMidYMid meet" version="1.0"><defs><clipPath id="8ec2a48135"><path d="M 237 11 L 254.71875 11 L 254.71875 375 L 237 375 Z M 237 11 " clip-rule="nonzero"/></clipPath><clipPath id="edf4013a54"><path d="M 120.46875 11 L 139 11 L 139 375 L 120.46875 375 Z M 120.46875 11 " clip-rule="nonzero"/></clipPath></defs><path fill="#100f0d" d="M 193.824219 11.535156 L 181.417969 11.535156 C 179.988281 11.535156 178.824219 12.695312 178.824219 14.121094 L 178.824219 372.410156 C 178.824219 373.839844 179.988281 375 181.417969 375 L 193.824219 375 C 195.257812 375 196.417969 373.839844 196.417969 372.410156 L 196.417969 14.121094 C 196.417969 12.695312 195.257812 11.535156 193.824219 11.535156 " fill-opacity="1" fill-rule="nonzero"/><g clip-path="url(#8ec2a48135)"><path fill="#100f0d" d="M 252.144531 11.535156 L 239.734375 11.535156 C 238.304688 11.535156 237.144531 12.695312 237.144531 14.121094 L 237.144531 372.410156 C 237.144531 373.839844 238.304688 375 239.734375 375 L 252.144531 375 C 253.574219 375 254.734375 373.839844 254.734375 372.410156 L 254.734375 14.121094 C 254.734375 12.695312 253.574219 11.535156 252.144531 11.535156 " fill-opacity="1" fill-rule="nonzero"/></g><g clip-path="url(#edf4013a54)"><path fill="#100f0d" d="M 135.507812 11.535156 L 123.101562 11.535156 C 121.667969 11.535156 120.507812 12.695312 120.507812 14.121094 L 120.507812 372.410156 C 120.507812 373.839844 121.667969 375 123.101562 375 L 135.507812 375 C 136.941406 375 138.101562 373.839844 138.101562 372.410156 L 138.101562 14.121094 C 138.101562 12.695312 136.941406 11.535156 135.507812 11.535156 " fill-opacity="1" fill-rule="nonzero"/></g><path fill="#100f0d" d="M 230.632812 0 L 228.867188 0 C 227.925781 0 227.160156 0.761719 227.160156 1.707031 C 227.160156 0.761719 226.394531 0 225.449219 0 L 223.683594 0 C 222.742188 0 221.976562 0.761719 221.976562 1.707031 C 221.976562 0.761719 221.210938 0 220.265625 0 L 218.5 0 C 217.558594 0 216.792969 0.761719 216.792969 1.707031 C 216.792969 0.761719 216.027344 0 215.085938 0 L 213.316406 0 C 212.375 0 211.609375 0.761719 211.609375 1.707031 C 211.609375 0.761719 210.84375 0 209.902344 0 L 208.132812 0 C 207.191406 0 206.425781 0.761719 206.425781 1.707031 L 206.425781 11.3125 C 206.425781 12.253906 207.191406 13.015625 208.132812 13.015625 L 209.902344 13.015625 C 210.84375 13.015625 211.609375 12.253906 211.609375 11.3125 C 211.609375 12.253906 212.375 13.015625 213.316406 13.015625 L 215.085938 13.015625 C 216.027344 13.015625 216.792969 12.253906 216.792969 11.3125 C 216.792969 12.253906 217.558594 13.015625 218.5 13.015625 L 220.265625 13.015625 C 221.210938 13.015625 221.976562 12.253906 221.976562 11.3125 C 221.976562 12.253906 222.742188 13.015625 223.683594 13.015625 L 225.449219 13.015625 C 226.394531 13.015625 227.160156 12.253906 227.160156 11.3125 C 227.160156 12.253906 227.925781 13.015625 228.867188 13.015625 L 230.632812 13.015625 C 231.578125 13.015625 232.34375 12.253906 232.34375 11.3125 L 232.34375 1.707031 C 232.34375 0.761719 231.578125 0 230.632812 0 " fill-opacity="1" fill-rule="nonzero"/><path fill="#100f0d" d="M 167.109375 0 L 165.34375 0 C 164.402344 0 163.636719 0.761719 163.636719 1.707031 C 163.636719 0.761719 162.871094 0 161.925781 0 L 160.160156 0 C 159.214844 0 158.449219 0.761719 158.449219 1.707031 C 158.449219 0.761719 157.6875 0 156.742188 0 L 154.976562 0 C 154.03125 0 153.269531 0.761719 153.269531 1.707031 C 153.269531 0.761719 152.503906 0 151.5625 0 L 149.792969 0 C 148.847656 0 148.085938 0.761719 148.085938 1.707031 C 148.085938 0.761719 147.320312 0 146.378906 0 L 144.609375 0 C 143.667969 0 142.902344 0.761719 142.902344 1.707031 L 142.902344 11.3125 C 142.902344 12.253906 143.667969 13.015625 144.609375 13.015625 L 146.378906 13.015625 C 147.320312 13.015625 148.085938 12.253906 148.085938 11.3125 C 148.085938 12.253906 148.847656 13.015625 149.792969 13.015625 L 151.5625 13.015625 C 152.503906 13.015625 153.269531 12.253906 153.269531 11.3125 C 153.269531 12.253906 154.03125 13.015625 154.976562 13.015625 L 156.742188 13.015625 C 157.6875 13.015625 158.449219 12.253906 158.449219 11.3125 C 158.449219 12.253906 159.214844 13.015625 160.160156 13.015625 L 161.925781 13.015625 C 162.871094 13.015625 163.636719 12.253906 163.636719 11.3125 C 163.636719 12.253906 164.402344 13.015625 165.34375 13.015625 L 167.109375 13.015625 C 168.050781 13.015625 168.816406 12.253906 168.816406 11.3125 L 168.816406 1.707031 C 168.816406 0.761719 168.050781 0 167.109375 0 " fill-opacity="1" fill-rule="nonzero"/><path fill="#100f0d" d="M 127.457031 5.097656 L 127.457031 7.867188 C 127.457031 8.777344 128.195312 9.515625 129.105469 9.515625 L 139.789062 9.515625 L 139.789062 3.453125 L 129.105469 3.453125 C 128.195312 3.453125 127.457031 4.1875 127.457031 5.097656 " fill-opacity="1" fill-rule="nonzero"/><path fill="#100f0d" d="M 184.265625 7.867188 L 184.265625 5.097656 C 184.265625 4.1875 183.523438 3.453125 182.613281 3.453125 L 171.929688 3.453125 L 171.929688 9.515625 L 182.613281 9.515625 C 183.523438 9.515625 184.265625 8.777344 184.265625 7.867188 " fill-opacity="1" fill-rule="nonzero"/><path fill="#100f0d" d="M 190.980469 5.097656 L 190.980469 7.867188 C 190.980469 8.777344 191.71875 9.515625 192.632812 9.515625 L 203.3125 9.515625 L 203.3125 3.453125 L 192.632812 3.453125 C 191.71875 3.453125 190.980469 4.1875 190.980469 5.097656 " fill-opacity="1" fill-rule="nonzero"/><path fill="#100f0d" d="M 247.785156 7.867188 L 247.785156 5.097656 C 247.785156 4.1875 247.050781 3.453125 246.136719 3.453125 L 235.453125 3.453125 L 235.453125 9.515625 L 246.136719 9.515625 C 247.050781 9.515625 247.785156 8.777344 247.785156 7.867188 " fill-opacity="1" fill-rule="nonzero"/><path fill="#100f0d" d="M 41.589844 373.632812 C 26.007812 365 10.742188 349.609375 1.480469 333.425781 C 0.0390625 330.914062 0.460938 327.746094 2.507812 325.699219 L 217.464844 110.742188 C 218.976562 109.226562 221.433594 109.226562 222.945312 110.742188 L 264.25 152.046875 C 265.765625 153.5625 265.765625 156.015625 264.25 157.53125 L 49.230469 372.550781 C 47.207031 374.574219 44.089844 375.019531 41.589844 373.632812 " fill-opacity="1" fill-rule="nonzero"/><path fill="#100f0d" d="M 261.835938 129.09375 L 355.355469 35.578125 L 355.667969 35.890625 C 356.1875 36.414062 357.027344 36.441406 357.578125 35.949219 L 374.363281 21.109375 C 374.953125 20.585938 374.980469 19.675781 374.425781 19.117188 L 355.875 0.570312 C 355.316406 0.0117188 354.40625 0.0429688 353.882812 0.628906 L 339.042969 17.414062 C 338.554688 17.964844 338.578125 18.804688 339.101562 19.328125 L 339.417969 19.640625 L 245.902344 113.15625 L 230.488281 109.566406 L 265.425781 144.503906 L 261.835938 129.09375 " fill-opacity="1" fill-rule="nonzero"/></svg>